<mxfile host="app.diagrams.net" agent="Mozilla/5.0 (Macintosh; Intel Mac OS X 10_15_7) AppleWebKit/605.1.15 (KHTML, like Gecko) Version/18.3 Safari/605.1.15" version="26.0.14">
  <diagram name="Page-1" id="xxQxWvJTeSmR-I7mr7og">
    <mxGraphModel dx="3290" dy="1362" grid="1" gridSize="10" guides="1" tooltips="1" connect="1" arrows="1" fold="1" page="1" pageScale="1" pageWidth="850" pageHeight="1100" math="0" shadow="0">
      <root>
        <mxCell id="0" />
        <mxCell id="1" parent="0" />
        <UserObject label="" plantUmlData="{&quot;data&quot;:&quot;@startuml\nskinparam backgroundColor white\nskinparam class {\n  BackgroundColor LightGray\n  BorderColor Black\n  ArrowColor Black\n}\n\nclass User {\n  -ObjectId id\n  -String username\n  -String email\n  -String password\n  -String role\n  -List&lt;ObjectId&gt; selectedSportIds\n  -List&lt;ObjectId&gt; teamIds\n}\n\nclass Membership {\n  -ObjectId id\n  -ObjectId userId\n  -String membershipType\n  -Date upgradeDate\n  -String paymentStatus\n  -subscriptionPlan: { price: Number, duration: String, startDate: Date, endDate: Date }\n}\n\nclass Sport {\n  -ObjectId id\n  -String name\n}\n\nclass Team {\n  -ObjectId id\n  -String name\n  -ObjectId sportId\n}\n\nclass Event {\n  -ObjectId id\n  -String name\n  -ObjectId sportId\n  -List&lt;ObjectId&gt; teamIds\n  -Date date\n  -String location\n}\n\nclass Ticket {\n  -ObjectId id\n  -ObjectId userId\n  -ObjectId eventId\n  -Number price\n  -String status\n  -Date createdAt\n  -String seatNumber\n  -String ticketType\n}\n\nclass Content {\n  -ObjectId id\n  -String title\n  -String type\n  -ObjectId teamId\n  -String videoUrl\n  -Date createdAt\n}\n\nclass Product {\n  -ObjectId id\n  -String name\n  -Number price\n  -ObjectId teamId\n  -String imageUrl\n  -Boolean isExclusive\n  -Date createdAt\n}\n\nclass Post {\n  -ObjectId id\n  -ObjectId userId\n  -ObjectId teamId\n  -String text\n  -Date createdAt\n  -ObjectId eventId\n}\n\nclass Poll {\n  -ObjectId id\n  -String question\n  -List&lt;String&gt; options\n  -Date createdAt\n}\n\nclass PollVote {\n  -ObjectId id\n  -ObjectId pollId\n  -ObjectId userId\n  -Number optionIndex\n}\n\nclass EventTeam {\n  -ObjectId id\n  -ObjectId eventId\n  -ObjectId teamId\n  -String role\n  -String participationStatus\n  -Date startTime\n}\n\nclass Category {\n  -ObjectId id\n  -String name\n  -ObjectId parentCategoryId\n}\n\n&#39; Relationships\nUser \&quot;1\&quot; -- \&quot;0..1\&quot; Membership : has\nUser \&quot;1\&quot; -- \&quot;*\&quot; Sport : has_selectedSports\nUser \&quot;1\&quot; -- \&quot;*\&quot; Team : follows\nUser \&quot;1\&quot; -- \&quot;*\&quot; Ticket : owns\nUser \&quot;1\&quot; -- \&quot;*\&quot; PollVote : casts\nUser \&quot;1\&quot; -- \&quot;*\&quot; Post : writes\n\nSport \&quot;1\&quot; -- \&quot;*\&quot; Team : includes\nSport \&quot;*\&quot; -- \&quot;*\&quot; Category : belongsTo\n\nCategory \&quot;1\&quot; -- \&quot;*\&quot; Category : hasSubcategories\n\nEvent \&quot;1\&quot; -- \&quot;*\&quot; Ticket : has\nEvent \&quot;1\&quot; -- \&quot;1\&quot; Sport : belongsTo\nEvent \&quot;1\&quot; -- \&quot;*\&quot; EventTeam : has\n\nTeam \&quot;1\&quot; -- \&quot;*\&quot; Content : offers\nTeam \&quot;1\&quot; -- \&quot;*\&quot; Product : offers\nTeam \&quot;1\&quot; -- \&quot;*\&quot; Post : receives\nTeam \&quot;1\&quot; -- \&quot;*\&quot; EventTeam : participatesIn\n\nPoll \&quot;1\&quot; -- \&quot;*\&quot; PollVote : records\n\nPost \&quot;0..1\&quot; -- \&quot;1\&quot; Event : references\n\n&#39; Notes for MongoDB\nnote right of User\n  Users, Tickets, Events, etc., are stored in separate collections.\n  Relationships use ObjectId references or embedding for small data.\nend note\n\n@enduml&quot;,&quot;format&quot;:&quot;svg&quot;}" id="oEdbznUDOQFUf2YDtdI0-1">
          <mxCell style="shape=image;noLabel=1;verticalAlign=top;aspect=fixed;imageAspect=0;image=data:image/svg+xml,PD94bWwgdmVyc2lvbj0iMS4wIiBlbmNvZGluZz0idXMtYXNjaWkiIHN0YW5kYWxvbmU9Im5vIj8+PHN2ZyB4bWxucz0iaHR0cDovL3d3dy53My5vcmcvMjAwMC9zdmciIHhtbG5zOnhsaW5rPSJodHRwOi8vd3d3LnczLm9yZy8xOTk5L3hsaW5rIiBjb250ZW50U3R5bGVUeXBlPSJ0ZXh0L2NzcyIgaGVpZ2h0PSIxMjMxcHgiIHByZXNlcnZlQXNwZWN0UmF0aW89Im5vbmUiIHN0eWxlPSJ3aWR0aDoxMzQzcHg7aGVpZ2h0OjEyMzFweDtiYWNrZ3JvdW5kOiNGRkZGRkY7IiB2ZXJzaW9uPSIxLjEiIHZpZXdCb3g9IjAgMCAxMzQzIDEyMzEiIHdpZHRoPSIxMzQzcHgiIHpvb21BbmRQYW49Im1hZ25pZnkiPjxkZWZzLz48Zz48IS0tY2xhc3MgVXNlci0tPjxnIGlkPSJlbGVtX1VzZXIiPjxyZWN0IGNvZGVMaW5lPSI4IiBmaWxsPSIjRDNEM0QzIiBoZWlnaHQ9IjE1Mi44OTA2IiBpZD0iVXNlciIgcng9IjIuNSIgcnk9IjIuNSIgc3R5bGU9InN0cm9rZTojMDAwMDAwO3N0cm9rZS13aWR0aDowLjU7IiB3aWR0aD0iMjQzIiB4PSIzODguNSIgeT0iNyIvPjxlbGxpcHNlIGN4PSI0OTEuNzUiIGN5PSIyMyIgZmlsbD0iI0FERDFCMiIgcng9IjExIiByeT0iMTEiIHN0eWxlPSJzdHJva2U6IzE4MTgxODtzdHJva2Utd2lkdGg6MS4wOyIvPjxwYXRoIGQ9Ik00ODkuMzc1LDI3LjI1IEw0ODkuMzc1LDI5IEw0OTQuMzEyNSwyOSBMNDk0LjMxMjUsMjcuMjUgTDQ4OS4zNzUsMjcuMjUgWiBNNDkwLjA2MjUsMjcuOTM3NSBRNDkwLjA2MjUsMjcuOTM3NSA0OTAuMDYyNSwxOC43NSBMNDg4LjMxMjUsMTguNzUgUTQ4OC4zMTI1LDE4Ljc1IDQ4OC4zMTI1LDI3LjkzNzUgTDQ5MC4wNjI1LDI3LjkzNzUgWiBNNDkzLjYyNSwyNy45Mzc1IEw0OTUuMzc1LDI3LjkzNzUgUTQ5NS4zNzUsMjcuOTM3NSA0OTUuMzc1LDI1LjEyNSBMNDkzLjYyNSwyNS4xMjUgUTQ5My42MjUsMjUuMTI1IDQ5My42MjUsMjcuOTM3NSBaIE00OTMuNjI1LDE4Ljc1IFE0OTMuNjI1LDE4Ljc1IDQ5My42MjUsMjEuNTYyNSBMNDk1LjM3NSwyMS41NjI1IFE0OTUuMzc1LDIxLjU2MjUgNDk1LjM3NSwxOC43NSBMNDkzLjYyNSwxOC43NSBaIE00ODkuMzc1LDE5LjQzNzUgTDQ5NC4zMTI1LDE5LjQzNzUgTDQ5NC4zMTI1LDE3LjY4NzUgTDQ4OS4zNzUsMTcuNjg3NSBMNDg5LjM3NSwxOS40Mzc1IFogIiBmaWxsPSIjMDAwMDAwIi8+PHRleHQgZmlsbD0iIzAwMDAwMCIgZm9udC1mYW1pbHk9InNhbnMtc2VyaWYiIGZvbnQtc2l6ZT0iMTQiIGxlbmd0aEFkanVzdD0ic3BhY2luZyIgdGV4dExlbmd0aD0iMjgiIHg9IjUxMi4yNSIgeT0iMjguNzQyMiI+VXNlcjwvdGV4dD48bGluZSBzdHlsZT0ic3Ryb2tlOiMwMDAwMDA7c3Ryb2tlLXdpZHRoOjAuNTsiIHgxPSIzODkuNSIgeDI9IjYzMC41IiB5MT0iMzkiIHkyPSIzOSIvPjxyZWN0IGZpbGw9Im5vbmUiIGhlaWdodD0iNiIgc3R5bGU9InN0cm9rZTojQzgyOTMwO3N0cm9rZS13aWR0aDoxLjA7IiB3aWR0aD0iNiIgeD0iMzk2LjUiIHk9IjQ4Ljk5MjIiLz48dGV4dCBmaWxsPSIjMDAwMDAwIiBmb250LWZhbWlseT0ic2Fucy1zZXJpZiIgZm9udC1zaXplPSIxNCIgbGVuZ3RoQWRqdXN0PSJzcGFjaW5nIiB0ZXh0TGVuZ3RoPSI3NyIgeD0iNDA4LjUiIHk9IjU2LjIzNDQiPk9iamVjdElkIGlkPC90ZXh0PjxyZWN0IGZpbGw9Im5vbmUiIGhlaWdodD0iNiIgc3R5bGU9InN0cm9rZTojQzgyOTMwO3N0cm9rZS13aWR0aDoxLjA7IiB3aWR0aD0iNiIgeD0iMzk2LjUiIHk9IjYzLjk3NjYiLz48dGV4dCBmaWxsPSIjMDAwMDAwIiBmb250LWZhbWlseT0ic2Fucy1zZXJpZiIgZm9udC1zaXplPSIxNCIgbGVuZ3RoQWRqdXN0PSJzcGFjaW5nIiB0ZXh0TGVuZ3RoPSIxMDYiIHg9IjQwOC41IiB5PSI3MS4yMTg4Ij5TdHJpbmcgdXNlcm5hbWU8L3RleHQ+PHJlY3QgZmlsbD0ibm9uZSIgaGVpZ2h0PSI2IiBzdHlsZT0ic3Ryb2tlOiNDODI5MzA7c3Ryb2tlLXdpZHRoOjEuMDsiIHdpZHRoPSI2IiB4PSIzOTYuNSIgeT0iNzguOTYwOSIvPjx0ZXh0IGZpbGw9IiMwMDAwMDAiIGZvbnQtZmFtaWx5PSJzYW5zLXNlcmlmIiBmb250LXNpemU9IjE0IiBsZW5ndGhBZGp1c3Q9InNwYWNpbmciIHRleHRMZW5ndGg9Ijg1IiB4PSI0MDguNSIgeT0iODYuMjAzMSI+U3RyaW5nIGVtYWlsPC90ZXh0PjxyZWN0IGZpbGw9Im5vbmUiIGhlaWdodD0iNiIgc3R5bGU9InN0cm9rZTojQzgyOTMwO3N0cm9rZS13aWR0aDoxLjA7IiB3aWR0aD0iNiIgeD0iMzk2LjUiIHk9IjkzLjk0NTMiLz48dGV4dCBmaWxsPSIjMDAwMDAwIiBmb250LWZhbWlseT0ic2Fucy1zZXJpZiIgZm9udC1zaXplPSIxNCIgbGVuZ3RoQWRqdXN0PSJzcGFjaW5nIiB0ZXh0TGVuZ3RoPSIxMDYiIHg9IjQwOC41IiB5PSIxMDEuMTg3NSI+U3RyaW5nIHBhc3N3b3JkPC90ZXh0PjxyZWN0IGZpbGw9Im5vbmUiIGhlaWdodD0iNiIgc3R5bGU9InN0cm9rZTojQzgyOTMwO3N0cm9rZS13aWR0aDoxLjA7IiB3aWR0aD0iNiIgeD0iMzk2LjUiIHk9IjEwOC45Mjk3Ii8+PHRleHQgZmlsbD0iIzAwMDAwMCIgZm9udC1mYW1pbHk9InNhbnMtc2VyaWYiIGZvbnQtc2l6ZT0iMTQiIGxlbmd0aEFkanVzdD0ic3BhY2luZyIgdGV4dExlbmd0aD0iNzciIHg9IjQwOC41IiB5PSIxMTYuMTcxOSI+U3RyaW5nIHJvbGU8L3RleHQ+PHJlY3QgZmlsbD0ibm9uZSIgaGVpZ2h0PSI2IiBzdHlsZT0ic3Ryb2tlOiNDODI5MzA7c3Ryb2tlLXdpZHRoOjEuMDsiIHdpZHRoPSI2IiB4PSIzOTYuNSIgeT0iMTIzLjkxNDEiLz48dGV4dCBmaWxsPSIjMDAwMDAwIiBmb250LWZhbWlseT0ic2Fucy1zZXJpZiIgZm9udC1zaXplPSIxNCIgbGVuZ3RoQWRqdXN0PSJzcGFjaW5nIiB0ZXh0TGVuZ3RoPSIyMTciIHg9IjQwOC41IiB5PSIxMzEuMTU2MyI+TGlzdCZsdDtPYmplY3RJZCZndDsgc2VsZWN0ZWRTcG9ydElkczwvdGV4dD48cmVjdCBmaWxsPSJub25lIiBoZWlnaHQ9IjYiIHN0eWxlPSJzdHJva2U6I0M4MjkzMDtzdHJva2Utd2lkdGg6MS4wOyIgd2lkdGg9IjYiIHg9IjM5Ni41IiB5PSIxMzguODk4NCIvPjx0ZXh0IGZpbGw9IiMwMDAwMDAiIGZvbnQtZmFtaWx5PSJzYW5zLXNlcmlmIiBmb250LXNpemU9IjE0IiBsZW5ndGhBZGp1c3Q9InNwYWNpbmciIHRleHRMZW5ndGg9IjE1NSIgeD0iNDA4LjUiIHk9IjE0Ni4xNDA2Ij5MaXN0Jmx0O09iamVjdElkJmd0OyB0ZWFtSWRzPC90ZXh0PjxsaW5lIHN0eWxlPSJzdHJva2U6IzAwMDAwMDtzdHJva2Utd2lkdGg6MC41OyIgeDE9IjM4OS41IiB4Mj0iNjMwLjUiIHkxPSIxNTEuODkwNiIgeTI9IjE1MS44OTA2Ii8+PC9nPjwhLS1jbGFzcyBNZW1iZXJzaGlwLS0+PGcgaWQ9ImVsZW1fTWVtYmVyc2hpcCI+PHJlY3QgY29kZUxpbmU9IjE4IiBmaWxsPSIjRDNEM0QzIiBoZWlnaHQ9IjEzNy45MDYzIiBpZD0iTWVtYmVyc2hpcCIgcng9IjIuNSIgcnk9IjIuNSIgc3R5bGU9InN0cm9rZTojMDAwMDAwO3N0cm9rZS13aWR0aDowLjU7IiB3aWR0aD0iNjI0IiB4PSIxOTgiIHk9IjIzNSIvPjxlbGxpcHNlIGN4PSI0NzAuMjUiIGN5PSIyNTEiIGZpbGw9IiNBREQxQjIiIHJ4PSIxMSIgcnk9IjExIiBzdHlsZT0ic3Ryb2tlOiMxODE4MTg7c3Ryb2tlLXdpZHRoOjEuMDsiLz48cGF0aCBkPSJNNDY3Ljg3NSwyNTUuMjUgTDQ2Ny44NzUsMjU3IEw0NzIuODEyNSwyNTcgTDQ3Mi44MTI1LDI1NS4yNSBMNDY3Ljg3NSwyNTUuMjUgWiBNNDY4LjU2MjUsMjU1LjkzNzUgUTQ2OC41NjI1LDI1NS45Mzc1IDQ2OC41NjI1LDI0Ni43NSBMNDY2LjgxMjUsMjQ2Ljc1IFE0NjYuODEyNSwyNDYuNzUgNDY2LjgxMjUsMjU1LjkzNzUgTDQ2OC41NjI1LDI1NS45Mzc1IFogTTQ3Mi4xMjUsMjU1LjkzNzUgTDQ3My44NzUsMjU1LjkzNzUgUTQ3My44NzUsMjU1LjkzNzUgNDczLjg3NSwyNTMuMTI1IEw0NzIuMTI1LDI1My4xMjUgUTQ3Mi4xMjUsMjUzLjEyNSA0NzIuMTI1LDI1NS45Mzc1IFogTTQ3Mi4xMjUsMjQ2Ljc1IFE0NzIuMTI1LDI0Ni43NSA0NzIuMTI1LDI0OS41NjI1IEw0NzMuODc1LDI0OS41NjI1IFE0NzMuODc1LDI0OS41NjI1IDQ3My44NzUsMjQ2Ljc1IEw0NzIuMTI1LDI0Ni43NSBaIE00NjcuODc1LDI0Ny40Mzc1IEw0NzIuODEyNSwyNDcuNDM3NSBMNDcyLjgxMjUsMjQ1LjY4NzUgTDQ2Ny44NzUsMjQ1LjY4NzUgTDQ2Ny44NzUsMjQ3LjQzNzUgWiAiIGZpbGw9IiMwMDAwMDAiLz48dGV4dCBmaWxsPSIjMDAwMDAwIiBmb250LWZhbWlseT0ic2Fucy1zZXJpZiIgZm9udC1zaXplPSIxNCIgbGVuZ3RoQWRqdXN0PSJzcGFjaW5nIiB0ZXh0TGVuZ3RoPSI3MSIgeD0iNDkwLjc1IiB5PSIyNTYuNzQyMiI+TWVtYmVyc2hpcDwvdGV4dD48bGluZSBzdHlsZT0ic3Ryb2tlOiMwMDAwMDA7c3Ryb2tlLXdpZHRoOjAuNTsiIHgxPSIxOTkiIHgyPSI4MjEiIHkxPSIyNjciIHkyPSIyNjciLz48cmVjdCBmaWxsPSJub25lIiBoZWlnaHQ9IjYiIHN0eWxlPSJzdHJva2U6I0M4MjkzMDtzdHJva2Utd2lkdGg6MS4wOyIgd2lkdGg9IjYiIHg9IjIwNiIgeT0iMjc2Ljk5MjIiLz48dGV4dCBmaWxsPSIjMDAwMDAwIiBmb250LWZhbWlseT0ic2Fucy1zZXJpZiIgZm9udC1zaXplPSIxNCIgbGVuZ3RoQWRqdXN0PSJzcGFjaW5nIiB0ZXh0TGVuZ3RoPSI3NyIgeD0iMjE4IiB5PSIyODQuMjM0NCI+T2JqZWN0SWQgaWQ8L3RleHQ+PHJlY3QgZmlsbD0ibm9uZSIgaGVpZ2h0PSI2IiBzdHlsZT0ic3Ryb2tlOiNDODI5MzA7c3Ryb2tlLXdpZHRoOjEuMDsiIHdpZHRoPSI2IiB4PSIyMDYiIHk9IjI5MS45NzY2Ii8+PHRleHQgZmlsbD0iIzAwMDAwMCIgZm9udC1mYW1pbHk9InNhbnMtc2VyaWYiIGZvbnQtc2l6ZT0iMTQiIGxlbmd0aEFkanVzdD0ic3BhY2luZyIgdGV4dExlbmd0aD0iMTA1IiB4PSIyMTgiIHk9IjI5OS4yMTg4Ij5PYmplY3RJZCB1c2VySWQ8L3RleHQ+PHJlY3QgZmlsbD0ibm9uZSIgaGVpZ2h0PSI2IiBzdHlsZT0ic3Ryb2tlOiNDODI5MzA7c3Ryb2tlLXdpZHRoOjEuMDsiIHdpZHRoPSI2IiB4PSIyMDYiIHk9IjMwNi45NjA5Ii8+PHRleHQgZmlsbD0iIzAwMDAwMCIgZm9udC1mYW1pbHk9InNhbnMtc2VyaWYiIGZvbnQtc2l6ZT0iMTQiIGxlbmd0aEFkanVzdD0ic3BhY2luZyIgdGV4dExlbmd0aD0iMTQ5IiB4PSIyMTgiIHk9IjMxNC4yMDMxIj5TdHJpbmcgbWVtYmVyc2hpcFR5cGU8L3RleHQ+PHJlY3QgZmlsbD0ibm9uZSIgaGVpZ2h0PSI2IiBzdHlsZT0ic3Ryb2tlOiNDODI5MzA7c3Ryb2tlLXdpZHRoOjEuMDsiIHdpZHRoPSI2IiB4PSIyMDYiIHk9IjMyMS45NDUzIi8+PHRleHQgZmlsbD0iIzAwMDAwMCIgZm9udC1mYW1pbHk9InNhbnMtc2VyaWYiIGZvbnQtc2l6ZT0iMTQiIGxlbmd0aEFkanVzdD0ic3BhY2luZyIgdGV4dExlbmd0aD0iMTEyIiB4PSIyMTgiIHk9IjMyOS4xODc1Ij5EYXRlIHVwZ3JhZGVEYXRlPC90ZXh0PjxyZWN0IGZpbGw9Im5vbmUiIGhlaWdodD0iNiIgc3R5bGU9InN0cm9rZTojQzgyOTMwO3N0cm9rZS13aWR0aDoxLjA7IiB3aWR0aD0iNiIgeD0iMjA2IiB5PSIzMzYuOTI5NyIvPjx0ZXh0IGZpbGw9IiMwMDAwMDAiIGZvbnQtZmFtaWx5PSJzYW5zLXNlcmlmIiBmb250LXNpemU9IjE0IiBsZW5ndGhBZGp1c3Q9InNwYWNpbmciIHRleHRMZW5ndGg9IjE0MSIgeD0iMjE4IiB5PSIzNDQuMTcxOSI+U3RyaW5nIHBheW1lbnRTdGF0dXM8L3RleHQ+PHJlY3QgZmlsbD0ibm9uZSIgaGVpZ2h0PSI2IiBzdHlsZT0ic3Ryb2tlOiNDODI5MzA7c3Ryb2tlLXdpZHRoOjEuMDsiIHdpZHRoPSI2IiB4PSIyMDYiIHk9IjM1MS45MTQxIi8+PHRleHQgZmlsbD0iIzAwMDAwMCIgZm9udC1mYW1pbHk9InNhbnMtc2VyaWYiIGZvbnQtc2l6ZT0iMTQiIGxlbmd0aEFkanVzdD0ic3BhY2luZyIgdGV4dExlbmd0aD0iNTk4IiB4PSIyMTgiIHk9IjM1OS4xNTYzIj5zdWJzY3JpcHRpb25QbGFuOiB7IHByaWNlOiBOdW1iZXIsIGR1cmF0aW9uOiBTdHJpbmcsIHN0YXJ0RGF0ZTogRGF0ZSwgZW5kRGF0ZTogRGF0ZSB9PC90ZXh0PjxsaW5lIHN0eWxlPSJzdHJva2U6IzAwMDAwMDtzdHJva2Utd2lkdGg6MC41OyIgeDE9IjE5OSIgeDI9IjgyMSIgeTE9IjM2NC45MDYzIiB5Mj0iMzY0LjkwNjMiLz48L2c+PCEtLWNsYXNzIFNwb3J0LS0+PGcgaWQ9ImVsZW1fU3BvcnQiPjxyZWN0IGNvZGVMaW5lPSIyNyIgZmlsbD0iI0QzRDNEMyIgaGVpZ2h0PSI3Ny45Njg4IiBpZD0iU3BvcnQiIHJ4PSIyLjUiIHJ5PSIyLjUiIHN0eWxlPSJzdHJva2U6IzAwMDAwMDtzdHJva2Utd2lkdGg6MC41OyIgd2lkdGg9IjEwNCIgeD0iNTkiIHk9IjI2NSIvPjxlbGxpcHNlIGN4PSI5MC42NSIgY3k9IjI4MSIgZmlsbD0iI0FERDFCMiIgcng9IjExIiByeT0iMTEiIHN0eWxlPSJzdHJva2U6IzE4MTgxODtzdHJva2Utd2lkdGg6MS4wOyIvPjxwYXRoIGQ9Ik04OC4yNzUsMjg1LjI1IEw4OC4yNzUsMjg3IEw5My4yMTI1LDI4NyBMOTMuMjEyNSwyODUuMjUgTDg4LjI3NSwyODUuMjUgWiBNODguOTYyNSwyODUuOTM3NSBRODguOTYyNSwyODUuOTM3NSA4OC45NjI1LDI3Ni43NSBMODcuMjEyNSwyNzYuNzUgUTg3LjIxMjUsMjc2Ljc1IDg3LjIxMjUsMjg1LjkzNzUgTDg4Ljk2MjUsMjg1LjkzNzUgWiBNOTIuNTI1LDI4NS45Mzc1IEw5NC4yNzUsMjg1LjkzNzUgUTk0LjI3NSwyODUuOTM3NSA5NC4yNzUsMjgzLjEyNSBMOTIuNTI1LDI4My4xMjUgUTkyLjUyNSwyODMuMTI1IDkyLjUyNSwyODUuOTM3NSBaIE05Mi41MjUsMjc2Ljc1IFE5Mi41MjUsMjc2Ljc1IDkyLjUyNSwyNzkuNTYyNSBMOTQuMjc1LDI3OS41NjI1IFE5NC4yNzUsMjc5LjU2MjUgOTQuMjc1LDI3Ni43NSBMOTIuNTI1LDI3Ni43NSBaIE04OC4yNzUsMjc3LjQzNzUgTDkzLjIxMjUsMjc3LjQzNzUgTDkzLjIxMjUsMjc1LjY4NzUgTDg4LjI3NSwyNzUuNjg3NSBMODguMjc1LDI3Ny40Mzc1IFogIiBmaWxsPSIjMDAwMDAwIi8+PHRleHQgZmlsbD0iIzAwMDAwMCIgZm9udC1mYW1pbHk9InNhbnMtc2VyaWYiIGZvbnQtc2l6ZT0iMTQiIGxlbmd0aEFkanVzdD0ic3BhY2luZyIgdGV4dExlbmd0aD0iMzUiIHg9IjEwOC4zNSIgeT0iMjg2Ljc0MjIiPlNwb3J0PC90ZXh0PjxsaW5lIHN0eWxlPSJzdHJva2U6IzAwMDAwMDtzdHJva2Utd2lkdGg6MC41OyIgeDE9IjYwIiB4Mj0iMTYyIiB5MT0iMjk3IiB5Mj0iMjk3Ii8+PHJlY3QgZmlsbD0ibm9uZSIgaGVpZ2h0PSI2IiBzdHlsZT0ic3Ryb2tlOiNDODI5MzA7c3Ryb2tlLXdpZHRoOjEuMDsiIHdpZHRoPSI2IiB4PSI2NyIgeT0iMzA2Ljk5MjIiLz48dGV4dCBmaWxsPSIjMDAwMDAwIiBmb250LWZhbWlseT0ic2Fucy1zZXJpZiIgZm9udC1zaXplPSIxNCIgbGVuZ3RoQWRqdXN0PSJzcGFjaW5nIiB0ZXh0TGVuZ3RoPSI3NyIgeD0iNzkiIHk9IjMxNC4yMzQ0Ij5PYmplY3RJZCBpZDwvdGV4dD48cmVjdCBmaWxsPSJub25lIiBoZWlnaHQ9IjYiIHN0eWxlPSJzdHJva2U6I0M4MjkzMDtzdHJva2Utd2lkdGg6MS4wOyIgd2lkdGg9IjYiIHg9IjY3IiB5PSIzMjEuOTc2NiIvPjx0ZXh0IGZpbGw9IiMwMDAwMDAiIGZvbnQtZmFtaWx5PSJzYW5zLXNlcmlmIiBmb250LXNpemU9IjE0IiBsZW5ndGhBZGp1c3Q9InNwYWNpbmciIHRleHRMZW5ndGg9Ijc4IiB4PSI3OSIgeT0iMzI5LjIxODgiPlN0cmluZyBuYW1lPC90ZXh0PjxsaW5lIHN0eWxlPSJzdHJva2U6IzAwMDAwMDtzdHJva2Utd2lkdGg6MC41OyIgeDE9IjYwIiB4Mj0iMTYyIiB5MT0iMzM0Ljk2ODgiIHkyPSIzMzQuOTY4OCIvPjwvZz48IS0tY2xhc3MgVGVhbS0tPjxnIGlkPSJlbGVtX1RlYW0iPjxyZWN0IGNvZGVMaW5lPSIzMiIgZmlsbD0iI0QzRDNEMyIgaGVpZ2h0PSI5Mi45NTMxIiBpZD0iVGVhbSIgcng9IjIuNSIgcnk9IjIuNSIgc3R5bGU9InN0cm9rZTojMDAwMDAwO3N0cm9rZS13aWR0aDowLjU7IiB3aWR0aD0iMTM4IiB4PSI1MjQiIHk9IjQ0OCIvPjxlbGxpcHNlIGN4PSI1NzQuMjUiIGN5PSI0NjQiIGZpbGw9IiNBREQxQjIiIHJ4PSIxMSIgcnk9IjExIiBzdHlsZT0ic3Ryb2tlOiMxODE4MTg7c3Ryb2tlLXdpZHRoOjEuMDsiLz48cGF0aCBkPSJNNTcxLjg3NSw0NjguMjUgTDU3MS44NzUsNDcwIEw1NzYuODEyNSw0NzAgTDU3Ni44MTI1LDQ2OC4yNSBMNTcxLjg3NSw0NjguMjUgWiBNNTcyLjU2MjUsNDY4LjkzNzUgUTU3Mi41NjI1LDQ2OC45Mzc1IDU3Mi41NjI1LDQ1OS43NSBMNTcwLjgxMjUsNDU5Ljc1IFE1NzAuODEyNSw0NTkuNzUgNTcwLjgxMjUsNDY4LjkzNzUgTDU3Mi41NjI1LDQ2OC45Mzc1IFogTTU3Ni4xMjUsNDY4LjkzNzUgTDU3Ny44NzUsNDY4LjkzNzUgUTU3Ny44NzUsNDY4LjkzNzUgNTc3Ljg3NSw0NjYuMTI1IEw1NzYuMTI1LDQ2Ni4xMjUgUTU3Ni4xMjUsNDY2LjEyNSA1NzYuMTI1LDQ2OC45Mzc1IFogTTU3Ni4xMjUsNDU5Ljc1IFE1NzYuMTI1LDQ1OS43NSA1NzYuMTI1LDQ2Mi41NjI1IEw1NzcuODc1LDQ2Mi41NjI1IFE1NzcuODc1LDQ2Mi41NjI1IDU3Ny44NzUsNDU5Ljc1IEw1NzYuMTI1LDQ1OS43NSBaIE01NzEuODc1LDQ2MC40Mzc1IEw1NzYuODEyNSw0NjAuNDM3NSBMNTc2LjgxMjUsNDU4LjY4NzUgTDU3MS44NzUsNDU4LjY4NzUgTDU3MS44NzUsNDYwLjQzNzUgWiAiIGZpbGw9IiMwMDAwMDAiLz48dGV4dCBmaWxsPSIjMDAwMDAwIiBmb250LWZhbWlseT0ic2Fucy1zZXJpZiIgZm9udC1zaXplPSIxNCIgbGVuZ3RoQWRqdXN0PSJzcGFjaW5nIiB0ZXh0TGVuZ3RoPSIyOSIgeD0iNTk0Ljc1IiB5PSI0NjkuNzQyMiI+VGVhbTwvdGV4dD48bGluZSBzdHlsZT0ic3Ryb2tlOiMwMDAwMDA7c3Ryb2tlLXdpZHRoOjAuNTsiIHgxPSI1MjUiIHgyPSI2NjEiIHkxPSI0ODAiIHkyPSI0ODAiLz48cmVjdCBmaWxsPSJub25lIiBoZWlnaHQ9IjYiIHN0eWxlPSJzdHJva2U6I0M4MjkzMDtzdHJva2Utd2lkdGg6MS4wOyIgd2lkdGg9IjYiIHg9IjUzMiIgeT0iNDg5Ljk5MjIiLz48dGV4dCBmaWxsPSIjMDAwMDAwIiBmb250LWZhbWlseT0ic2Fucy1zZXJpZiIgZm9udC1zaXplPSIxNCIgbGVuZ3RoQWRqdXN0PSJzcGFjaW5nIiB0ZXh0TGVuZ3RoPSI3NyIgeD0iNTQ0IiB5PSI0OTcuMjM0NCI+T2JqZWN0SWQgaWQ8L3RleHQ+PHJlY3QgZmlsbD0ibm9uZSIgaGVpZ2h0PSI2IiBzdHlsZT0ic3Ryb2tlOiNDODI5MzA7c3Ryb2tlLXdpZHRoOjEuMDsiIHdpZHRoPSI2IiB4PSI1MzIiIHk9IjUwNC45NzY2Ii8+PHRleHQgZmlsbD0iIzAwMDAwMCIgZm9udC1mYW1pbHk9InNhbnMtc2VyaWYiIGZvbnQtc2l6ZT0iMTQiIGxlbmd0aEFkanVzdD0ic3BhY2luZyIgdGV4dExlbmd0aD0iNzgiIHg9IjU0NCIgeT0iNTEyLjIxODgiPlN0cmluZyBuYW1lPC90ZXh0PjxyZWN0IGZpbGw9Im5vbmUiIGhlaWdodD0iNiIgc3R5bGU9InN0cm9rZTojQzgyOTMwO3N0cm9rZS13aWR0aDoxLjA7IiB3aWR0aD0iNiIgeD0iNTMyIiB5PSI1MTkuOTYwOSIvPjx0ZXh0IGZpbGw9IiMwMDAwMDAiIGZvbnQtZmFtaWx5PSJzYW5zLXNlcmlmIiBmb250LXNpemU9IjE0IiBsZW5ndGhBZGp1c3Q9InNwYWNpbmciIHRleHRMZW5ndGg9IjExMiIgeD0iNTQ0IiB5PSI1MjcuMjAzMSI+T2JqZWN0SWQgc3BvcnRJZDwvdGV4dD48bGluZSBzdHlsZT0ic3Ryb2tlOiMwMDAwMDA7c3Ryb2tlLXdpZHRoOjAuNTsiIHgxPSI1MjUiIHgyPSI2NjEiIHkxPSI1MzIuOTUzMSIgeTI9IjUzMi45NTMxIi8+PC9nPjwhLS1jbGFzcyBFdmVudC0tPjxnIGlkPSJlbGVtX0V2ZW50Ij48cmVjdCBjb2RlTGluZT0iMzgiIGZpbGw9IiNEM0QzRDMiIGhlaWdodD0iMTM3LjkwNjMiIGlkPSJFdmVudCIgcng9IjIuNSIgcnk9IjIuNSIgc3R5bGU9InN0cm9rZTojMDAwMDAwO3N0cm9rZS13aWR0aDowLjU7IiB3aWR0aD0iMTgxIiB4PSI0MTUuNSIgeT0iODQ0Ii8+PGVsbGlwc2UgY3g9IjQ4NC4yNSIgY3k9Ijg2MCIgZmlsbD0iI0FERDFCMiIgcng9IjExIiByeT0iMTEiIHN0eWxlPSJzdHJva2U6IzE4MTgxODtzdHJva2Utd2lkdGg6MS4wOyIvPjxwYXRoIGQ9Ik00ODEuODc1LDg2NC4yNSBMNDgxLjg3NSw4NjYgTDQ4Ni44MTI1LDg2NiBMNDg2LjgxMjUsODY0LjI1IEw0ODEuODc1LDg2NC4yNSBaIE00ODIuNTYyNSw4NjQuOTM3NSBRNDgyLjU2MjUsODY0LjkzNzUgNDgyLjU2MjUsODU1Ljc1IEw0ODAuODEyNSw4NTUuNzUgUTQ4MC44MTI1LDg1NS43NSA0ODAuODEyNSw4NjQuOTM3NSBMNDgyLjU2MjUsODY0LjkzNzUgWiBNNDg2LjEyNSw4NjQuOTM3NSBMNDg3Ljg3NSw4NjQuOTM3NSBRNDg3Ljg3NSw4NjQuOTM3NSA0ODcuODc1LDg2Mi4xMjUgTDQ4Ni4xMjUsODYyLjEyNSBRNDg2LjEyNSw4NjIuMTI1IDQ4Ni4xMjUsODY0LjkzNzUgWiBNNDg2LjEyNSw4NTUuNzUgUTQ4Ni4xMjUsODU1Ljc1IDQ4Ni4xMjUsODU4LjU2MjUgTDQ4Ny44NzUsODU4LjU2MjUgUTQ4Ny44NzUsODU4LjU2MjUgNDg3Ljg3NSw4NTUuNzUgTDQ4Ni4xMjUsODU1Ljc1IFogTTQ4MS44NzUsODU2LjQzNzUgTDQ4Ni44MTI1LDg1Ni40Mzc1IEw0ODYuODEyNSw4NTQuNjg3NSBMNDgxLjg3NSw4NTQuNjg3NSBMNDgxLjg3NSw4NTYuNDM3NSBaICIgZmlsbD0iIzAwMDAwMCIvPjx0ZXh0IGZpbGw9IiMwMDAwMDAiIGZvbnQtZmFtaWx5PSJzYW5zLXNlcmlmIiBmb250LXNpemU9IjE0IiBsZW5ndGhBZGp1c3Q9InNwYWNpbmciIHRleHRMZW5ndGg9IjM1IiB4PSI1MDQuNzUiIHk9Ijg2NS43NDIyIj5FdmVudDwvdGV4dD48bGluZSBzdHlsZT0ic3Ryb2tlOiMwMDAwMDA7c3Ryb2tlLXdpZHRoOjAuNTsiIHgxPSI0MTYuNSIgeDI9IjU5NS41IiB5MT0iODc2IiB5Mj0iODc2Ii8+PHJlY3QgZmlsbD0ibm9uZSIgaGVpZ2h0PSI2IiBzdHlsZT0ic3Ryb2tlOiNDODI5MzA7c3Ryb2tlLXdpZHRoOjEuMDsiIHdpZHRoPSI2IiB4PSI0MjMuNSIgeT0iODg1Ljk5MjIiLz48dGV4dCBmaWxsPSIjMDAwMDAwIiBmb250LWZhbWlseT0ic2Fucy1zZXJpZiIgZm9udC1zaXplPSIxNCIgbGVuZ3RoQWRqdXN0PSJzcGFjaW5nIiB0ZXh0TGVuZ3RoPSI3NyIgeD0iNDM1LjUiIHk9Ijg5My4yMzQ0Ij5PYmplY3RJZCBpZDwvdGV4dD48cmVjdCBmaWxsPSJub25lIiBoZWlnaHQ9IjYiIHN0eWxlPSJzdHJva2U6I0M4MjkzMDtzdHJva2Utd2lkdGg6MS4wOyIgd2lkdGg9IjYiIHg9IjQyMy41IiB5PSI5MDAuOTc2NiIvPjx0ZXh0IGZpbGw9IiMwMDAwMDAiIGZvbnQtZmFtaWx5PSJzYW5zLXNlcmlmIiBmb250LXNpemU9IjE0IiBsZW5ndGhBZGp1c3Q9InNwYWNpbmciIHRleHRMZW5ndGg9Ijc4IiB4PSI0MzUuNSIgeT0iOTA4LjIxODgiPlN0cmluZyBuYW1lPC90ZXh0PjxyZWN0IGZpbGw9Im5vbmUiIGhlaWdodD0iNiIgc3R5bGU9InN0cm9rZTojQzgyOTMwO3N0cm9rZS13aWR0aDoxLjA7IiB3aWR0aD0iNiIgeD0iNDIzLjUiIHk9IjkxNS45NjA5Ii8+PHRleHQgZmlsbD0iIzAwMDAwMCIgZm9udC1mYW1pbHk9InNhbnMtc2VyaWYiIGZvbnQtc2l6ZT0iMTQiIGxlbmd0aEFkanVzdD0ic3BhY2luZyIgdGV4dExlbmd0aD0iMTEyIiB4PSI0MzUuNSIgeT0iOTIzLjIwMzEiPk9iamVjdElkIHNwb3J0SWQ8L3RleHQ+PHJlY3QgZmlsbD0ibm9uZSIgaGVpZ2h0PSI2IiBzdHlsZT0ic3Ryb2tlOiNDODI5MzA7c3Ryb2tlLXdpZHRoOjEuMDsiIHdpZHRoPSI2IiB4PSI0MjMuNSIgeT0iOTMwLjk0NTMiLz48dGV4dCBmaWxsPSIjMDAwMDAwIiBmb250LWZhbWlseT0ic2Fucy1zZXJpZiIgZm9udC1zaXplPSIxNCIgbGVuZ3RoQWRqdXN0PSJzcGFjaW5nIiB0ZXh0TGVuZ3RoPSIxNTUiIHg9IjQzNS41IiB5PSI5MzguMTg3NSI+TGlzdCZsdDtPYmplY3RJZCZndDsgdGVhbUlkczwvdGV4dD48cmVjdCBmaWxsPSJub25lIiBoZWlnaHQ9IjYiIHN0eWxlPSJzdHJva2U6I0M4MjkzMDtzdHJva2Utd2lkdGg6MS4wOyIgd2lkdGg9IjYiIHg9IjQyMy41IiB5PSI5NDUuOTI5NyIvPjx0ZXh0IGZpbGw9IiMwMDAwMDAiIGZvbnQtZmFtaWx5PSJzYW5zLXNlcmlmIiBmb250LXNpemU9IjE0IiBsZW5ndGhBZGp1c3Q9InNwYWNpbmciIHRleHRMZW5ndGg9IjYzIiB4PSI0MzUuNSIgeT0iOTUzLjE3MTkiPkRhdGUgZGF0ZTwvdGV4dD48cmVjdCBmaWxsPSJub25lIiBoZWlnaHQ9IjYiIHN0eWxlPSJzdHJva2U6I0M4MjkzMDtzdHJva2Utd2lkdGg6MS4wOyIgd2lkdGg9IjYiIHg9IjQyMy41IiB5PSI5NjAuOTE0MSIvPjx0ZXh0IGZpbGw9IiMwMDAwMDAiIGZvbnQtZmFtaWx5PSJzYW5zLXNlcmlmIiBmb250LXNpemU9IjE0IiBsZW5ndGhBZGp1c3Q9InNwYWNpbmciIHRleHRMZW5ndGg9IjEwNSIgeD0iNDM1LjUiIHk9Ijk2OC4xNTYzIj5TdHJpbmcgbG9jYXRpb248L3RleHQ+PGxpbmUgc3R5bGU9InN0cm9rZTojMDAwMDAwO3N0cm9rZS13aWR0aDowLjU7IiB4MT0iNDE2LjUiIHgyPSI1OTUuNSIgeTE9Ijk3My45MDYzIiB5Mj0iOTczLjkwNjMiLz48L2c+PCEtLWNsYXNzIFRpY2tldC0tPjxnIGlkPSJlbGVtX1RpY2tldCI+PHJlY3QgY29kZUxpbmU9IjQ3IiBmaWxsPSIjRDNEM0QzIiBoZWlnaHQ9IjE2Ny44NzUiIGlkPSJUaWNrZXQiIHJ4PSIyLjUiIHJ5PSIyLjUiIHN0eWxlPSJzdHJva2U6IzAwMDAwMDtzdHJva2Utd2lkdGg6MC41OyIgd2lkdGg9IjE0NiIgeD0iMTA5IiB5PSIxMDU3Ii8+PGVsbGlwc2UgY3g9IjE1Ni43NSIgY3k9IjEwNzMiIGZpbGw9IiNBREQxQjIiIHJ4PSIxMSIgcnk9IjExIiBzdHlsZT0ic3Ryb2tlOiMxODE4MTg7c3Ryb2tlLXdpZHRoOjEuMDsiLz48cGF0aCBkPSJNMTU0LjM3NSwxMDc3LjI1IEwxNTQuMzc1LDEwNzkgTDE1OS4zMTI1LDEwNzkgTDE1OS4zMTI1LDEwNzcuMjUgTDE1NC4zNzUsMTA3Ny4yNSBaIE0xNTUuMDYyNSwxMDc3LjkzNzUgUTE1NS4wNjI1LDEwNzcuOTM3NSAxNTUuMDYyNSwxMDY4Ljc1IEwxNTMuMzEyNSwxMDY4Ljc1IFExNTMuMzEyNSwxMDY4Ljc1IDE1My4zMTI1LDEwNzcuOTM3NSBMMTU1LjA2MjUsMTA3Ny45Mzc1IFogTTE1OC42MjUsMTA3Ny45Mzc1IEwxNjAuMzc1LDEwNzcuOTM3NSBRMTYwLjM3NSwxMDc3LjkzNzUgMTYwLjM3NSwxMDc1LjEyNSBMMTU4LjYyNSwxMDc1LjEyNSBRMTU4LjYyNSwxMDc1LjEyNSAxNTguNjI1LDEwNzcuOTM3NSBaIE0xNTguNjI1LDEwNjguNzUgUTE1OC42MjUsMTA2OC43NSAxNTguNjI1LDEwNzEuNTYyNSBMMTYwLjM3NSwxMDcxLjU2MjUgUTE2MC4zNzUsMTA3MS41NjI1IDE2MC4zNzUsMTA2OC43NSBMMTU4LjYyNSwxMDY4Ljc1IFogTTE1NC4zNzUsMTA2OS40Mzc1IEwxNTkuMzEyNSwxMDY5LjQzNzUgTDE1OS4zMTI1LDEwNjcuNjg3NSBMMTU0LjM3NSwxMDY3LjY4NzUgTDE1NC4zNzUsMTA2OS40Mzc1IFogIiBmaWxsPSIjMDAwMDAwIi8+PHRleHQgZmlsbD0iIzAwMDAwMCIgZm9udC1mYW1pbHk9InNhbnMtc2VyaWYiIGZvbnQtc2l6ZT0iMTQiIGxlbmd0aEFkanVzdD0ic3BhY2luZyIgdGV4dExlbmd0aD0iNDIiIHg9IjE3Ny4yNSIgeT0iMTA3OC43NDIyIj5UaWNrZXQ8L3RleHQ+PGxpbmUgc3R5bGU9InN0cm9rZTojMDAwMDAwO3N0cm9rZS13aWR0aDowLjU7IiB4MT0iMTEwIiB4Mj0iMjU0IiB5MT0iMTA4OSIgeTI9IjEwODkiLz48cmVjdCBmaWxsPSJub25lIiBoZWlnaHQ9IjYiIHN0eWxlPSJzdHJva2U6I0M4MjkzMDtzdHJva2Utd2lkdGg6MS4wOyIgd2lkdGg9IjYiIHg9IjExNyIgeT0iMTA5OC45OTIyIi8+PHRleHQgZmlsbD0iIzAwMDAwMCIgZm9udC1mYW1pbHk9InNhbnMtc2VyaWYiIGZvbnQtc2l6ZT0iMTQiIGxlbmd0aEFkanVzdD0ic3BhY2luZyIgdGV4dExlbmd0aD0iNzciIHg9IjEyOSIgeT0iMTEwNi4yMzQ0Ij5PYmplY3RJZCBpZDwvdGV4dD48cmVjdCBmaWxsPSJub25lIiBoZWlnaHQ9IjYiIHN0eWxlPSJzdHJva2U6I0M4MjkzMDtzdHJva2Utd2lkdGg6MS4wOyIgd2lkdGg9IjYiIHg9IjExNyIgeT0iMTExMy45NzY2Ii8+PHRleHQgZmlsbD0iIzAwMDAwMCIgZm9udC1mYW1pbHk9InNhbnMtc2VyaWYiIGZvbnQtc2l6ZT0iMTQiIGxlbmd0aEFkanVzdD0ic3BhY2luZyIgdGV4dExlbmd0aD0iMTA1IiB4PSIxMjkiIHk9IjExMjEuMjE4OCI+T2JqZWN0SWQgdXNlcklkPC90ZXh0PjxyZWN0IGZpbGw9Im5vbmUiIGhlaWdodD0iNiIgc3R5bGU9InN0cm9rZTojQzgyOTMwO3N0cm9rZS13aWR0aDoxLjA7IiB3aWR0aD0iNiIgeD0iMTE3IiB5PSIxMTI4Ljk2MDkiLz48dGV4dCBmaWxsPSIjMDAwMDAwIiBmb250LWZhbWlseT0ic2Fucy1zZXJpZiIgZm9udC1zaXplPSIxNCIgbGVuZ3RoQWRqdXN0PSJzcGFjaW5nIiB0ZXh0TGVuZ3RoPSIxMTIiIHg9IjEyOSIgeT0iMTEzNi4yMDMxIj5PYmplY3RJZCBldmVudElkPC90ZXh0PjxyZWN0IGZpbGw9Im5vbmUiIGhlaWdodD0iNiIgc3R5bGU9InN0cm9rZTojQzgyOTMwO3N0cm9rZS13aWR0aDoxLjA7IiB3aWR0aD0iNiIgeD0iMTE3IiB5PSIxMTQzLjk0NTMiLz48dGV4dCBmaWxsPSIjMDAwMDAwIiBmb250LWZhbWlseT0ic2Fucy1zZXJpZiIgZm9udC1zaXplPSIxNCIgbGVuZ3RoQWRqdXN0PSJzcGFjaW5nIiB0ZXh0TGVuZ3RoPSI4NSIgeD0iMTI5IiB5PSIxMTUxLjE4NzUiPk51bWJlciBwcmljZTwvdGV4dD48cmVjdCBmaWxsPSJub25lIiBoZWlnaHQ9IjYiIHN0eWxlPSJzdHJva2U6I0M4MjkzMDtzdHJva2Utd2lkdGg6MS4wOyIgd2lkdGg9IjYiIHg9IjExNyIgeT0iMTE1OC45Mjk3Ii8+PHRleHQgZmlsbD0iIzAwMDAwMCIgZm9udC1mYW1pbHk9InNhbnMtc2VyaWYiIGZvbnQtc2l6ZT0iMTQiIGxlbmd0aEFkanVzdD0ic3BhY2luZyIgdGV4dExlbmd0aD0iOTEiIHg9IjEyOSIgeT0iMTE2Ni4xNzE5Ij5TdHJpbmcgc3RhdHVzPC90ZXh0PjxyZWN0IGZpbGw9Im5vbmUiIGhlaWdodD0iNiIgc3R5bGU9InN0cm9rZTojQzgyOTMwO3N0cm9rZS13aWR0aDoxLjA7IiB3aWR0aD0iNiIgeD0iMTE3IiB5PSIxMTczLjkxNDEiLz48dGV4dCBmaWxsPSIjMDAwMDAwIiBmb250LWZhbWlseT0ic2Fucy1zZXJpZiIgZm9udC1zaXplPSIxNCIgbGVuZ3RoQWRqdXN0PSJzcGFjaW5nIiB0ZXh0TGVuZ3RoPSI5OCIgeD0iMTI5IiB5PSIxMTgxLjE1NjMiPkRhdGUgY3JlYXRlZEF0PC90ZXh0PjxyZWN0IGZpbGw9Im5vbmUiIGhlaWdodD0iNiIgc3R5bGU9InN0cm9rZTojQzgyOTMwO3N0cm9rZS13aWR0aDoxLjA7IiB3aWR0aD0iNiIgeD0iMTE3IiB5PSIxMTg4Ljg5ODQiLz48dGV4dCBmaWxsPSIjMDAwMDAwIiBmb250LWZhbWlseT0ic2Fucy1zZXJpZiIgZm9udC1zaXplPSIxNCIgbGVuZ3RoQWRqdXN0PSJzcGFjaW5nIiB0ZXh0TGVuZ3RoPSIxMjAiIHg9IjEyOSIgeT0iMTE5Ni4xNDA2Ij5TdHJpbmcgc2VhdE51bWJlcjwvdGV4dD48cmVjdCBmaWxsPSJub25lIiBoZWlnaHQ9IjYiIHN0eWxlPSJzdHJva2U6I0M4MjkzMDtzdHJva2Utd2lkdGg6MS4wOyIgd2lkdGg9IjYiIHg9IjExNyIgeT0iMTIwMy44ODI4Ii8+PHRleHQgZmlsbD0iIzAwMDAwMCIgZm9udC1mYW1pbHk9InNhbnMtc2VyaWYiIGZvbnQtc2l6ZT0iMTQiIGxlbmd0aEFkanVzdD0ic3BhY2luZyIgdGV4dExlbmd0aD0iMTE5IiB4PSIxMjkiIHk9IjEyMTEuMTI1Ij5TdHJpbmcgdGlja2V0VHlwZTwvdGV4dD48bGluZSBzdHlsZT0ic3Ryb2tlOiMwMDAwMDA7c3Ryb2tlLXdpZHRoOjAuNTsiIHgxPSIxMTAiIHgyPSIyNTQiIHkxPSIxMjE2Ljg3NSIgeTI9IjEyMTYuODc1Ii8+PC9nPjwhLS1jbGFzcyBDb250ZW50LS0+PGcgaWQ9ImVsZW1fQ29udGVudCI+PHJlY3QgY29kZUxpbmU9IjU4IiBmaWxsPSIjRDNEM0QzIiBoZWlnaHQ9IjEzNy45MDYzIiBpZD0iQ29udGVudCIgcng9IjIuNSIgcnk9IjIuNSIgc3R5bGU9InN0cm9rZTojMDAwMDAwO3N0cm9rZS13aWR0aDowLjU7IiB3aWR0aD0iMTMyIiB4PSIxNjIiIHk9IjYyMy41Ii8+PGVsbGlwc2UgY3g9IjE5OS45NSIgY3k9IjYzOS41IiBmaWxsPSIjQUREMUIyIiByeD0iMTEiIHJ5PSIxMSIgc3R5bGU9InN0cm9rZTojMTgxODE4O3N0cm9rZS13aWR0aDoxLjA7Ii8+PHBhdGggZD0iTTE5Ny41NzUsNjQzLjc1IEwxOTcuNTc1LDY0NS41IEwyMDIuNTEyNSw2NDUuNSBMMjAyLjUxMjUsNjQzLjc1IEwxOTcuNTc1LDY0My43NSBaIE0xOTguMjYyNSw2NDQuNDM3NSBRMTk4LjI2MjUsNjQ0LjQzNzUgMTk4LjI2MjUsNjM1LjI1IEwxOTYuNTEyNSw2MzUuMjUgUTE5Ni41MTI1LDYzNS4yNSAxOTYuNTEyNSw2NDQuNDM3NSBMMTk4LjI2MjUsNjQ0LjQzNzUgWiBNMjAxLjgyNSw2NDQuNDM3NSBMMjAzLjU3NSw2NDQuNDM3NSBRMjAzLjU3NSw2NDQuNDM3NSAyMDMuNTc1LDY0MS42MjUgTDIwMS44MjUsNjQxLjYyNSBRMjAxLjgyNSw2NDEuNjI1IDIwMS44MjUsNjQ0LjQzNzUgWiBNMjAxLjgyNSw2MzUuMjUgUTIwMS44MjUsNjM1LjI1IDIwMS44MjUsNjM4LjA2MjUgTDIwMy41NzUsNjM4LjA2MjUgUTIwMy41NzUsNjM4LjA2MjUgMjAzLjU3NSw2MzUuMjUgTDIwMS44MjUsNjM1LjI1IFogTTE5Ny41NzUsNjM1LjkzNzUgTDIwMi41MTI1LDYzNS45Mzc1IEwyMDIuNTEyNSw2MzQuMTg3NSBMMTk3LjU3NSw2MzQuMTg3NSBMMTk3LjU3NSw2MzUuOTM3NSBaICIgZmlsbD0iIzAwMDAwMCIvPjx0ZXh0IGZpbGw9IiMwMDAwMDAiIGZvbnQtZmFtaWx5PSJzYW5zLXNlcmlmIiBmb250LXNpemU9IjE0IiBsZW5ndGhBZGp1c3Q9InNwYWNpbmciIHRleHRMZW5ndGg9IjQ5IiB4PSIyMTkuMDUiIHk9IjY0NS4yNDIyIj5Db250ZW50PC90ZXh0PjxsaW5lIHN0eWxlPSJzdHJva2U6IzAwMDAwMDtzdHJva2Utd2lkdGg6MC41OyIgeDE9IjE2MyIgeDI9IjI5MyIgeTE9IjY1NS41IiB5Mj0iNjU1LjUiLz48cmVjdCBmaWxsPSJub25lIiBoZWlnaHQ9IjYiIHN0eWxlPSJzdHJva2U6I0M4MjkzMDtzdHJva2Utd2lkdGg6MS4wOyIgd2lkdGg9IjYiIHg9IjE3MCIgeT0iNjY1LjQ5MjIiLz48dGV4dCBmaWxsPSIjMDAwMDAwIiBmb250LWZhbWlseT0ic2Fucy1zZXJpZiIgZm9udC1zaXplPSIxNCIgbGVuZ3RoQWRqdXN0PSJzcGFjaW5nIiB0ZXh0TGVuZ3RoPSI3NyIgeD0iMTgyIiB5PSI2NzIuNzM0NCI+T2JqZWN0SWQgaWQ8L3RleHQ+PHJlY3QgZmlsbD0ibm9uZSIgaGVpZ2h0PSI2IiBzdHlsZT0ic3Ryb2tlOiNDODI5MzA7c3Ryb2tlLXdpZHRoOjEuMDsiIHdpZHRoPSI2IiB4PSIxNzAiIHk9IjY4MC40NzY2Ii8+PHRleHQgZmlsbD0iIzAwMDAwMCIgZm9udC1mYW1pbHk9InNhbnMtc2VyaWYiIGZvbnQtc2l6ZT0iMTQiIGxlbmd0aEFkanVzdD0ic3BhY2luZyIgdGV4dExlbmd0aD0iODQiIHg9IjE4MiIgeT0iNjg3LjcxODgiPlN0cmluZyB0aXRsZTwvdGV4dD48cmVjdCBmaWxsPSJub25lIiBoZWlnaHQ9IjYiIHN0eWxlPSJzdHJva2U6I0M4MjkzMDtzdHJva2Utd2lkdGg6MS4wOyIgd2lkdGg9IjYiIHg9IjE3MCIgeT0iNjk1LjQ2MDkiLz48dGV4dCBmaWxsPSIjMDAwMDAwIiBmb250LWZhbWlseT0ic2Fucy1zZXJpZiIgZm9udC1zaXplPSIxNCIgbGVuZ3RoQWRqdXN0PSJzcGFjaW5nIiB0ZXh0TGVuZ3RoPSI3NyIgeD0iMTgyIiB5PSI3MDIuNzAzMSI+U3RyaW5nIHR5cGU8L3RleHQ+PHJlY3QgZmlsbD0ibm9uZSIgaGVpZ2h0PSI2IiBzdHlsZT0ic3Ryb2tlOiNDODI5MzA7c3Ryb2tlLXdpZHRoOjEuMDsiIHdpZHRoPSI2IiB4PSIxNzAiIHk9IjcxMC40NDUzIi8+PHRleHQgZmlsbD0iIzAwMDAwMCIgZm9udC1mYW1pbHk9InNhbnMtc2VyaWYiIGZvbnQtc2l6ZT0iMTQiIGxlbmd0aEFkanVzdD0ic3BhY2luZyIgdGV4dExlbmd0aD0iMTA2IiB4PSIxODIiIHk9IjcxNy42ODc1Ij5PYmplY3RJZCB0ZWFtSWQ8L3RleHQ+PHJlY3QgZmlsbD0ibm9uZSIgaGVpZ2h0PSI2IiBzdHlsZT0ic3Ryb2tlOiNDODI5MzA7c3Ryb2tlLXdpZHRoOjEuMDsiIHdpZHRoPSI2IiB4PSIxNzAiIHk9IjcyNS40Mjk3Ii8+PHRleHQgZmlsbD0iIzAwMDAwMCIgZm9udC1mYW1pbHk9InNhbnMtc2VyaWYiIGZvbnQtc2l6ZT0iMTQiIGxlbmd0aEFkanVzdD0ic3BhY2luZyIgdGV4dExlbmd0aD0iMTA1IiB4PSIxODIiIHk9IjczMi42NzE5Ij5TdHJpbmcgdmlkZW9Vcmw8L3RleHQ+PHJlY3QgZmlsbD0ibm9uZSIgaGVpZ2h0PSI2IiBzdHlsZT0ic3Ryb2tlOiNDODI5MzA7c3Ryb2tlLXdpZHRoOjEuMDsiIHdpZHRoPSI2IiB4PSIxNzAiIHk9Ijc0MC40MTQxIi8+PHRleHQgZmlsbD0iIzAwMDAwMCIgZm9udC1mYW1pbHk9InNhbnMtc2VyaWYiIGZvbnQtc2l6ZT0iMTQiIGxlbmd0aEFkanVzdD0ic3BhY2luZyIgdGV4dExlbmd0aD0iOTgiIHg9IjE4MiIgeT0iNzQ3LjY1NjMiPkRhdGUgY3JlYXRlZEF0PC90ZXh0PjxsaW5lIHN0eWxlPSJzdHJva2U6IzAwMDAwMDtzdHJva2Utd2lkdGg6MC41OyIgeDE9IjE2MyIgeDI9IjI5MyIgeTE9Ijc1My40MDYzIiB5Mj0iNzUzLjQwNjMiLz48L2c+PCEtLWNsYXNzIFByb2R1Y3QtLT48ZyBpZD0iZWxlbV9Qcm9kdWN0Ij48cmVjdCBjb2RlTGluZT0iNjciIGZpbGw9IiNEM0QzRDMiIGhlaWdodD0iMTUyLjg5MDYiIGlkPSJQcm9kdWN0IiByeD0iMi41IiByeT0iMi41IiBzdHlsZT0ic3Ryb2tlOiMwMDAwMDA7c3Ryb2tlLXdpZHRoOjAuNTsiIHdpZHRoPSIxNTkiIHg9IjMyOS41IiB5PSI2MTYiLz48ZWxsaXBzZSBjeD0iMzgwLjI1IiBjeT0iNjMyIiBmaWxsPSIjQUREMUIyIiByeD0iMTEiIHJ5PSIxMSIgc3R5bGU9InN0cm9rZTojMTgxODE4O3N0cm9rZS13aWR0aDoxLjA7Ii8+PHBhdGggZD0iTTM3Ny44NzUsNjM2LjI1IEwzNzcuODc1LDYzOCBMMzgyLjgxMjUsNjM4IEwzODIuODEyNSw2MzYuMjUgTDM3Ny44NzUsNjM2LjI1IFogTTM3OC41NjI1LDYzNi45Mzc1IFEzNzguNTYyNSw2MzYuOTM3NSAzNzguNTYyNSw2MjcuNzUgTDM3Ni44MTI1LDYyNy43NSBRMzc2LjgxMjUsNjI3Ljc1IDM3Ni44MTI1LDYzNi45Mzc1IEwzNzguNTYyNSw2MzYuOTM3NSBaIE0zODIuMTI1LDYzNi45Mzc1IEwzODMuODc1LDYzNi45Mzc1IFEzODMuODc1LDYzNi45Mzc1IDM4My44NzUsNjM0LjEyNSBMMzgyLjEyNSw2MzQuMTI1IFEzODIuMTI1LDYzNC4xMjUgMzgyLjEyNSw2MzYuOTM3NSBaIE0zODIuMTI1LDYyNy43NSBRMzgyLjEyNSw2MjcuNzUgMzgyLjEyNSw2MzAuNTYyNSBMMzgzLjg3NSw2MzAuNTYyNSBRMzgzLjg3NSw2MzAuNTYyNSAzODMuODc1LDYyNy43NSBMMzgyLjEyNSw2MjcuNzUgWiBNMzc3Ljg3NSw2MjguNDM3NSBMMzgyLjgxMjUsNjI4LjQzNzUgTDM4Mi44MTI1LDYyNi42ODc1IEwzNzcuODc1LDYyNi42ODc1IEwzNzcuODc1LDYyOC40Mzc1IFogIiBmaWxsPSIjMDAwMDAwIi8+PHRleHQgZmlsbD0iIzAwMDAwMCIgZm9udC1mYW1pbHk9InNhbnMtc2VyaWYiIGZvbnQtc2l6ZT0iMTQiIGxlbmd0aEFkanVzdD0ic3BhY2luZyIgdGV4dExlbmd0aD0iNDkiIHg9IjQwMC43NSIgeT0iNjM3Ljc0MjIiPlByb2R1Y3Q8L3RleHQ+PGxpbmUgc3R5bGU9InN0cm9rZTojMDAwMDAwO3N0cm9rZS13aWR0aDowLjU7IiB4MT0iMzMwLjUiIHgyPSI0ODcuNSIgeTE9IjY0OCIgeTI9IjY0OCIvPjxyZWN0IGZpbGw9Im5vbmUiIGhlaWdodD0iNiIgc3R5bGU9InN0cm9rZTojQzgyOTMwO3N0cm9rZS13aWR0aDoxLjA7IiB3aWR0aD0iNiIgeD0iMzM3LjUiIHk9IjY1Ny45OTIyIi8+PHRleHQgZmlsbD0iIzAwMDAwMCIgZm9udC1mYW1pbHk9InNhbnMtc2VyaWYiIGZvbnQtc2l6ZT0iMTQiIGxlbmd0aEFkanVzdD0ic3BhY2luZyIgdGV4dExlbmd0aD0iNzciIHg9IjM0OS41IiB5PSI2NjUuMjM0NCI+T2JqZWN0SWQgaWQ8L3RleHQ+PHJlY3QgZmlsbD0ibm9uZSIgaGVpZ2h0PSI2IiBzdHlsZT0ic3Ryb2tlOiNDODI5MzA7c3Ryb2tlLXdpZHRoOjEuMDsiIHdpZHRoPSI2IiB4PSIzMzcuNSIgeT0iNjcyLjk3NjYiLz48dGV4dCBmaWxsPSIjMDAwMDAwIiBmb250LWZhbWlseT0ic2Fucy1zZXJpZiIgZm9udC1zaXplPSIxNCIgbGVuZ3RoQWRqdXN0PSJzcGFjaW5nIiB0ZXh0TGVuZ3RoPSI3OCIgeD0iMzQ5LjUiIHk9IjY4MC4yMTg4Ij5TdHJpbmcgbmFtZTwvdGV4dD48cmVjdCBmaWxsPSJub25lIiBoZWlnaHQ9IjYiIHN0eWxlPSJzdHJva2U6I0M4MjkzMDtzdHJva2Utd2lkdGg6MS4wOyIgd2lkdGg9IjYiIHg9IjMzNy41IiB5PSI2ODcuOTYwOSIvPjx0ZXh0IGZpbGw9IiMwMDAwMDAiIGZvbnQtZmFtaWx5PSJzYW5zLXNlcmlmIiBmb250LXNpemU9IjE0IiBsZW5ndGhBZGp1c3Q9InNwYWNpbmciIHRleHRMZW5ndGg9Ijg1IiB4PSIzNDkuNSIgeT0iNjk1LjIwMzEiPk51bWJlciBwcmljZTwvdGV4dD48cmVjdCBmaWxsPSJub25lIiBoZWlnaHQ9IjYiIHN0eWxlPSJzdHJva2U6I0M4MjkzMDtzdHJva2Utd2lkdGg6MS4wOyIgd2lkdGg9IjYiIHg9IjMzNy41IiB5PSI3MDIuOTQ1MyIvPjx0ZXh0IGZpbGw9IiMwMDAwMDAiIGZvbnQtZmFtaWx5PSJzYW5zLXNlcmlmIiBmb250LXNpemU9IjE0IiBsZW5ndGhBZGp1c3Q9InNwYWNpbmciIHRleHRMZW5ndGg9IjEwNiIgeD0iMzQ5LjUiIHk9IjcxMC4xODc1Ij5PYmplY3RJZCB0ZWFtSWQ8L3RleHQ+PHJlY3QgZmlsbD0ibm9uZSIgaGVpZ2h0PSI2IiBzdHlsZT0ic3Ryb2tlOiNDODI5MzA7c3Ryb2tlLXdpZHRoOjEuMDsiIHdpZHRoPSI2IiB4PSIzMzcuNSIgeT0iNzE3LjkyOTciLz48dGV4dCBmaWxsPSIjMDAwMDAwIiBmb250LWZhbWlseT0ic2Fucy1zZXJpZiIgZm9udC1zaXplPSIxNCIgbGVuZ3RoQWRqdXN0PSJzcGFjaW5nIiB0ZXh0TGVuZ3RoPSIxMDYiIHg9IjM0OS41IiB5PSI3MjUuMTcxOSI+U3RyaW5nIGltYWdlVXJsPC90ZXh0PjxyZWN0IGZpbGw9Im5vbmUiIGhlaWdodD0iNiIgc3R5bGU9InN0cm9rZTojQzgyOTMwO3N0cm9rZS13aWR0aDoxLjA7IiB3aWR0aD0iNiIgeD0iMzM3LjUiIHk9IjczMi45MTQxIi8+PHRleHQgZmlsbD0iIzAwMDAwMCIgZm9udC1mYW1pbHk9InNhbnMtc2VyaWYiIGZvbnQtc2l6ZT0iMTQiIGxlbmd0aEFkanVzdD0ic3BhY2luZyIgdGV4dExlbmd0aD0iMTMzIiB4PSIzNDkuNSIgeT0iNzQwLjE1NjMiPkJvb2xlYW4gaXNFeGNsdXNpdmU8L3RleHQ+PHJlY3QgZmlsbD0ibm9uZSIgaGVpZ2h0PSI2IiBzdHlsZT0ic3Ryb2tlOiNDODI5MzA7c3Ryb2tlLXdpZHRoOjEuMDsiIHdpZHRoPSI2IiB4PSIzMzcuNSIgeT0iNzQ3Ljg5ODQiLz48dGV4dCBmaWxsPSIjMDAwMDAwIiBmb250LWZhbWlseT0ic2Fucy1zZXJpZiIgZm9udC1zaXplPSIxNCIgbGVuZ3RoQWRqdXN0PSJzcGFjaW5nIiB0ZXh0TGVuZ3RoPSI5OCIgeD0iMzQ5LjUiIHk9Ijc1NS4xNDA2Ij5EYXRlIGNyZWF0ZWRBdDwvdGV4dD48bGluZSBzdHlsZT0ic3Ryb2tlOiMwMDAwMDA7c3Ryb2tlLXdpZHRoOjAuNTsiIHgxPSIzMzAuNSIgeDI9IjQ4Ny41IiB5MT0iNzYwLjg5MDYiIHkyPSI3NjAuODkwNiIvPjwvZz48IS0tY2xhc3MgUG9zdC0tPjxnIGlkPSJlbGVtX1Bvc3QiPjxyZWN0IGNvZGVMaW5lPSI3NyIgZmlsbD0iI0QzRDNEMyIgaGVpZ2h0PSIxMzcuOTA2MyIgaWQ9IlBvc3QiIHJ4PSIyLjUiIHJ5PSIyLjUiIHN0eWxlPSJzdHJva2U6IzAwMDAwMDtzdHJva2Utd2lkdGg6MC41OyIgd2lkdGg9IjEzOCIgeD0iNTI0IiB5PSI2MjMuNSIvPjxlbGxpcHNlIGN4PSI1NzQuNzUiIGN5PSI2MzkuNSIgZmlsbD0iI0FERDFCMiIgcng9IjExIiByeT0iMTEiIHN0eWxlPSJzdHJva2U6IzE4MTgxODtzdHJva2Utd2lkdGg6MS4wOyIvPjxwYXRoIGQ9Ik01NzIuMzc1LDY0My43NSBMNTcyLjM3NSw2NDUuNSBMNTc3LjMxMjUsNjQ1LjUgTDU3Ny4zMTI1LDY0My43NSBMNTcyLjM3NSw2NDMuNzUgWiBNNTczLjA2MjUsNjQ0LjQzNzUgUTU3My4wNjI1LDY0NC40Mzc1IDU3My4wNjI1LDYzNS4yNSBMNTcxLjMxMjUsNjM1LjI1IFE1NzEuMzEyNSw2MzUuMjUgNTcxLjMxMjUsNjQ0LjQzNzUgTDU3My4wNjI1LDY0NC40Mzc1IFogTTU3Ni42MjUsNjQ0LjQzNzUgTDU3OC4zNzUsNjQ0LjQzNzUgUTU3OC4zNzUsNjQ0LjQzNzUgNTc4LjM3NSw2NDEuNjI1IEw1NzYuNjI1LDY0MS42MjUgUTU3Ni42MjUsNjQxLjYyNSA1NzYuNjI1LDY0NC40Mzc1IFogTTU3Ni42MjUsNjM1LjI1IFE1NzYuNjI1LDYzNS4yNSA1NzYuNjI1LDYzOC4wNjI1IEw1NzguMzc1LDYzOC4wNjI1IFE1NzguMzc1LDYzOC4wNjI1IDU3OC4zNzUsNjM1LjI1IEw1NzYuNjI1LDYzNS4yNSBaIE01NzIuMzc1LDYzNS45Mzc1IEw1NzcuMzEyNSw2MzUuOTM3NSBMNTc3LjMxMjUsNjM0LjE4NzUgTDU3Mi4zNzUsNjM0LjE4NzUgTDU3Mi4zNzUsNjM1LjkzNzUgWiAiIGZpbGw9IiMwMDAwMDAiLz48dGV4dCBmaWxsPSIjMDAwMDAwIiBmb250LWZhbWlseT0ic2Fucy1zZXJpZiIgZm9udC1zaXplPSIxNCIgbGVuZ3RoQWRqdXN0PSJzcGFjaW5nIiB0ZXh0TGVuZ3RoPSIyOCIgeD0iNTk1LjI1IiB5PSI2NDUuMjQyMiI+UG9zdDwvdGV4dD48bGluZSBzdHlsZT0ic3Ryb2tlOiMwMDAwMDA7c3Ryb2tlLXdpZHRoOjAuNTsiIHgxPSI1MjUiIHgyPSI2NjEiIHkxPSI2NTUuNSIgeTI9IjY1NS41Ii8+PHJlY3QgZmlsbD0ibm9uZSIgaGVpZ2h0PSI2IiBzdHlsZT0ic3Ryb2tlOiNDODI5MzA7c3Ryb2tlLXdpZHRoOjEuMDsiIHdpZHRoPSI2IiB4PSI1MzIiIHk9IjY2NS40OTIyIi8+PHRleHQgZmlsbD0iIzAwMDAwMCIgZm9udC1mYW1pbHk9InNhbnMtc2VyaWYiIGZvbnQtc2l6ZT0iMTQiIGxlbmd0aEFkanVzdD0ic3BhY2luZyIgdGV4dExlbmd0aD0iNzciIHg9IjU0NCIgeT0iNjcyLjczNDQiPk9iamVjdElkIGlkPC90ZXh0PjxyZWN0IGZpbGw9Im5vbmUiIGhlaWdodD0iNiIgc3R5bGU9InN0cm9rZTojQzgyOTMwO3N0cm9rZS13aWR0aDoxLjA7IiB3aWR0aD0iNiIgeD0iNTMyIiB5PSI2ODAuNDc2NiIvPjx0ZXh0IGZpbGw9IiMwMDAwMDAiIGZvbnQtZmFtaWx5PSJzYW5zLXNlcmlmIiBmb250LXNpemU9IjE0IiBsZW5ndGhBZGp1c3Q9InNwYWNpbmciIHRleHRMZW5ndGg9IjEwNSIgeD0iNTQ0IiB5PSI2ODcuNzE4OCI+T2JqZWN0SWQgdXNlcklkPC90ZXh0PjxyZWN0IGZpbGw9Im5vbmUiIGhlaWdodD0iNiIgc3R5bGU9InN0cm9rZTojQzgyOTMwO3N0cm9rZS13aWR0aDoxLjA7IiB3aWR0aD0iNiIgeD0iNTMyIiB5PSI2OTUuNDYwOSIvPjx0ZXh0IGZpbGw9IiMwMDAwMDAiIGZvbnQtZmFtaWx5PSJzYW5zLXNlcmlmIiBmb250LXNpemU9IjE0IiBsZW5ndGhBZGp1c3Q9InNwYWNpbmciIHRleHRMZW5ndGg9IjEwNiIgeD0iNTQ0IiB5PSI3MDIuNzAzMSI+T2JqZWN0SWQgdGVhbUlkPC90ZXh0PjxyZWN0IGZpbGw9Im5vbmUiIGhlaWdodD0iNiIgc3R5bGU9InN0cm9rZTojQzgyOTMwO3N0cm9rZS13aWR0aDoxLjA7IiB3aWR0aD0iNiIgeD0iNTMyIiB5PSI3MTAuNDQ1MyIvPjx0ZXh0IGZpbGw9IiMwMDAwMDAiIGZvbnQtZmFtaWx5PSJzYW5zLXNlcmlmIiBmb250LXNpemU9IjE0IiBsZW5ndGhBZGp1c3Q9InNwYWNpbmciIHRleHRMZW5ndGg9Ijc3IiB4PSI1NDQiIHk9IjcxNy42ODc1Ij5TdHJpbmcgdGV4dDwvdGV4dD48cmVjdCBmaWxsPSJub25lIiBoZWlnaHQ9IjYiIHN0eWxlPSJzdHJva2U6I0M4MjkzMDtzdHJva2Utd2lkdGg6MS4wOyIgd2lkdGg9IjYiIHg9IjUzMiIgeT0iNzI1LjQyOTciLz48dGV4dCBmaWxsPSIjMDAwMDAwIiBmb250LWZhbWlseT0ic2Fucy1zZXJpZiIgZm9udC1zaXplPSIxNCIgbGVuZ3RoQWRqdXN0PSJzcGFjaW5nIiB0ZXh0TGVuZ3RoPSI5OCIgeD0iNTQ0IiB5PSI3MzIuNjcxOSI+RGF0ZSBjcmVhdGVkQXQ8L3RleHQ+PHJlY3QgZmlsbD0ibm9uZSIgaGVpZ2h0PSI2IiBzdHlsZT0ic3Ryb2tlOiNDODI5MzA7c3Ryb2tlLXdpZHRoOjEuMDsiIHdpZHRoPSI2IiB4PSI1MzIiIHk9Ijc0MC40MTQxIi8+PHRleHQgZmlsbD0iIzAwMDAwMCIgZm9udC1mYW1pbHk9InNhbnMtc2VyaWYiIGZvbnQtc2l6ZT0iMTQiIGxlbmd0aEFkanVzdD0ic3BhY2luZyIgdGV4dExlbmd0aD0iMTEyIiB4PSI1NDQiIHk9Ijc0Ny42NTYzIj5PYmplY3RJZCBldmVudElkPC90ZXh0PjxsaW5lIHN0eWxlPSJzdHJva2U6IzAwMDAwMDtzdHJva2Utd2lkdGg6MC41OyIgeDE9IjUyNSIgeDI9IjY2MSIgeTE9Ijc1My40MDYzIiB5Mj0iNzUzLjQwNjMiLz48L2c+PCEtLWNsYXNzIFBvbGwtLT48ZyBpZD0iZWxlbV9Qb2xsIj48cmVjdCBjb2RlTGluZT0iODYiIGZpbGw9IiNEM0QzRDMiIGhlaWdodD0iMTA3LjkzNzUiIGlkPSJQb2xsIiByeD0iMi41IiByeT0iMi41IiBzdHlsZT0ic3Ryb2tlOiMwMDAwMDA7c3Ryb2tlLXdpZHRoOjAuNTsiIHdpZHRoPSIxNjYiIHg9IjExNzAiIHk9IjI5LjUiLz48ZWxsaXBzZSBjeD0iMTIzNC43NSIgY3k9IjQ1LjUiIGZpbGw9IiNBREQxQjIiIHJ4PSIxMSIgcnk9IjExIiBzdHlsZT0ic3Ryb2tlOiMxODE4MTg7c3Ryb2tlLXdpZHRoOjEuMDsiLz48cGF0aCBkPSJNMTIzMi4zNzUsNDkuNzUgTDEyMzIuMzc1LDUxLjUgTDEyMzcuMzEyNSw1MS41IEwxMjM3LjMxMjUsNDkuNzUgTDEyMzIuMzc1LDQ5Ljc1IFogTTEyMzMuMDYyNSw1MC40Mzc1IFExMjMzLjA2MjUsNTAuNDM3NSAxMjMzLjA2MjUsNDEuMjUgTDEyMzEuMzEyNSw0MS4yNSBRMTIzMS4zMTI1LDQxLjI1IDEyMzEuMzEyNSw1MC40Mzc1IEwxMjMzLjA2MjUsNTAuNDM3NSBaIE0xMjM2LjYyNSw1MC40Mzc1IEwxMjM4LjM3NSw1MC40Mzc1IFExMjM4LjM3NSw1MC40Mzc1IDEyMzguMzc1LDQ3LjYyNSBMMTIzNi42MjUsNDcuNjI1IFExMjM2LjYyNSw0Ny42MjUgMTIzNi42MjUsNTAuNDM3NSBaIE0xMjM2LjYyNSw0MS4yNSBRMTIzNi42MjUsNDEuMjUgMTIzNi42MjUsNDQuMDYyNSBMMTIzOC4zNzUsNDQuMDYyNSBRMTIzOC4zNzUsNDQuMDYyNSAxMjM4LjM3NSw0MS4yNSBMMTIzNi42MjUsNDEuMjUgWiBNMTIzMi4zNzUsNDEuOTM3NSBMMTIzNy4zMTI1LDQxLjkzNzUgTDEyMzcuMzEyNSw0MC4xODc1IEwxMjMyLjM3NSw0MC4xODc1IEwxMjMyLjM3NSw0MS45Mzc1IFogIiBmaWxsPSIjMDAwMDAwIi8+PHRleHQgZmlsbD0iIzAwMDAwMCIgZm9udC1mYW1pbHk9InNhbnMtc2VyaWYiIGZvbnQtc2l6ZT0iMTQiIGxlbmd0aEFkanVzdD0ic3BhY2luZyIgdGV4dExlbmd0aD0iMjgiIHg9IjEyNTUuMjUiIHk9IjUxLjI0MjIiPlBvbGw8L3RleHQ+PGxpbmUgc3R5bGU9InN0cm9rZTojMDAwMDAwO3N0cm9rZS13aWR0aDowLjU7IiB4MT0iMTE3MSIgeDI9IjEzMzUiIHkxPSI2MS41IiB5Mj0iNjEuNSIvPjxyZWN0IGZpbGw9Im5vbmUiIGhlaWdodD0iNiIgc3R5bGU9InN0cm9rZTojQzgyOTMwO3N0cm9rZS13aWR0aDoxLjA7IiB3aWR0aD0iNiIgeD0iMTE3OCIgeT0iNzEuNDkyMiIvPjx0ZXh0IGZpbGw9IiMwMDAwMDAiIGZvbnQtZmFtaWx5PSJzYW5zLXNlcmlmIiBmb250LXNpemU9IjE0IiBsZW5ndGhBZGp1c3Q9InNwYWNpbmciIHRleHRMZW5ndGg9Ijc3IiB4PSIxMTkwIiB5PSI3OC43MzQ0Ij5PYmplY3RJZCBpZDwvdGV4dD48cmVjdCBmaWxsPSJub25lIiBoZWlnaHQ9IjYiIHN0eWxlPSJzdHJva2U6I0M4MjkzMDtzdHJva2Utd2lkdGg6MS4wOyIgd2lkdGg9IjYiIHg9IjExNzgiIHk9Ijg2LjQ3NjYiLz48dGV4dCBmaWxsPSIjMDAwMDAwIiBmb250LWZhbWlseT0ic2Fucy1zZXJpZiIgZm9udC1zaXplPSIxNCIgbGVuZ3RoQWRqdXN0PSJzcGFjaW5nIiB0ZXh0TGVuZ3RoPSIxMDUiIHg9IjExOTAiIHk9IjkzLjcxODgiPlN0cmluZyBxdWVzdGlvbjwvdGV4dD48cmVjdCBmaWxsPSJub25lIiBoZWlnaHQ9IjYiIHN0eWxlPSJzdHJva2U6I0M4MjkzMDtzdHJva2Utd2lkdGg6MS4wOyIgd2lkdGg9IjYiIHg9IjExNzgiIHk9IjEwMS40NjA5Ii8+PHRleHQgZmlsbD0iIzAwMDAwMCIgZm9udC1mYW1pbHk9InNhbnMtc2VyaWYiIGZvbnQtc2l6ZT0iMTQiIGxlbmd0aEFkanVzdD0ic3BhY2luZyIgdGV4dExlbmd0aD0iMTQwIiB4PSIxMTkwIiB5PSIxMDguNzAzMSI+TGlzdCZsdDtTdHJpbmcmZ3Q7IG9wdGlvbnM8L3RleHQ+PHJlY3QgZmlsbD0ibm9uZSIgaGVpZ2h0PSI2IiBzdHlsZT0ic3Ryb2tlOiNDODI5MzA7c3Ryb2tlLXdpZHRoOjEuMDsiIHdpZHRoPSI2IiB4PSIxMTc4IiB5PSIxMTYuNDQ1MyIvPjx0ZXh0IGZpbGw9IiMwMDAwMDAiIGZvbnQtZmFtaWx5PSJzYW5zLXNlcmlmIiBmb250LXNpemU9IjE0IiBsZW5ndGhBZGp1c3Q9InNwYWNpbmciIHRleHRMZW5ndGg9Ijk4IiB4PSIxMTkwIiB5PSIxMjMuNjg3NSI+RGF0ZSBjcmVhdGVkQXQ8L3RleHQ+PGxpbmUgc3R5bGU9InN0cm9rZTojMDAwMDAwO3N0cm9rZS13aWR0aDowLjU7IiB4MT0iMTE3MSIgeDI9IjEzMzUiIHkxPSIxMjkuNDM3NSIgeTI9IjEyOS40Mzc1Ii8+PC9nPjwhLS1jbGFzcyBQb2xsVm90ZS0tPjxnIGlkPSJlbGVtX1BvbGxWb3RlIj48cmVjdCBjb2RlTGluZT0iOTMiIGZpbGw9IiNEM0QzRDMiIGhlaWdodD0iMTA3LjkzNzUiIGlkPSJQb2xsVm90ZSIgcng9IjIuNSIgcnk9IjIuNSIgc3R5bGU9InN0cm9rZTojMDAwMDAwO3N0cm9rZS13aWR0aDowLjU7IiB3aWR0aD0iMTUzIiB4PSIxMTExLjUiIHk9IjI1MCIvPjxlbGxpcHNlIGN4PSIxMTU1Ljc1IiBjeT0iMjY2IiBmaWxsPSIjQUREMUIyIiByeD0iMTEiIHJ5PSIxMSIgc3R5bGU9InN0cm9rZTojMTgxODE4O3N0cm9rZS13aWR0aDoxLjA7Ii8+PHBhdGggZD0iTTExNTMuMzc1LDI3MC4yNSBMMTE1My4zNzUsMjcyIEwxMTU4LjMxMjUsMjcyIEwxMTU4LjMxMjUsMjcwLjI1IEwxMTUzLjM3NSwyNzAuMjUgWiBNMTE1NC4wNjI1LDI3MC45Mzc1IFExMTU0LjA2MjUsMjcwLjkzNzUgMTE1NC4wNjI1LDI2MS43NSBMMTE1Mi4zMTI1LDI2MS43NSBRMTE1Mi4zMTI1LDI2MS43NSAxMTUyLjMxMjUsMjcwLjkzNzUgTDExNTQuMDYyNSwyNzAuOTM3NSBaIE0xMTU3LjYyNSwyNzAuOTM3NSBMMTE1OS4zNzUsMjcwLjkzNzUgUTExNTkuMzc1LDI3MC45Mzc1IDExNTkuMzc1LDI2OC4xMjUgTDExNTcuNjI1LDI2OC4xMjUgUTExNTcuNjI1LDI2OC4xMjUgMTE1Ny42MjUsMjcwLjkzNzUgWiBNMTE1Ny42MjUsMjYxLjc1IFExMTU3LjYyNSwyNjEuNzUgMTE1Ny42MjUsMjY0LjU2MjUgTDExNTkuMzc1LDI2NC41NjI1IFExMTU5LjM3NSwyNjQuNTYyNSAxMTU5LjM3NSwyNjEuNzUgTDExNTcuNjI1LDI2MS43NSBaIE0xMTUzLjM3NSwyNjIuNDM3NSBMMTE1OC4zMTI1LDI2Mi40Mzc1IEwxMTU4LjMxMjUsMjYwLjY4NzUgTDExNTMuMzc1LDI2MC42ODc1IEwxMTUzLjM3NSwyNjIuNDM3NSBaICIgZmlsbD0iIzAwMDAwMCIvPjx0ZXh0IGZpbGw9IiMwMDAwMDAiIGZvbnQtZmFtaWx5PSJzYW5zLXNlcmlmIiBmb250LXNpemU9IjE0IiBsZW5ndGhBZGp1c3Q9InNwYWNpbmciIHRleHRMZW5ndGg9IjU2IiB4PSIxMTc2LjI1IiB5PSIyNzEuNzQyMiI+UG9sbFZvdGU8L3RleHQ+PGxpbmUgc3R5bGU9InN0cm9rZTojMDAwMDAwO3N0cm9rZS13aWR0aDowLjU7IiB4MT0iMTExMi41IiB4Mj0iMTI2My41IiB5MT0iMjgyIiB5Mj0iMjgyIi8+PHJlY3QgZmlsbD0ibm9uZSIgaGVpZ2h0PSI2IiBzdHlsZT0ic3Ryb2tlOiNDODI5MzA7c3Ryb2tlLXdpZHRoOjEuMDsiIHdpZHRoPSI2IiB4PSIxMTE5LjUiIHk9IjI5MS45OTIyIi8+PHRleHQgZmlsbD0iIzAwMDAwMCIgZm9udC1mYW1pbHk9InNhbnMtc2VyaWYiIGZvbnQtc2l6ZT0iMTQiIGxlbmd0aEFkanVzdD0ic3BhY2luZyIgdGV4dExlbmd0aD0iNzciIHg9IjExMzEuNSIgeT0iMjk5LjIzNDQiPk9iamVjdElkIGlkPC90ZXh0PjxyZWN0IGZpbGw9Im5vbmUiIGhlaWdodD0iNiIgc3R5bGU9InN0cm9rZTojQzgyOTMwO3N0cm9rZS13aWR0aDoxLjA7IiB3aWR0aD0iNiIgeD0iMTExOS41IiB5PSIzMDYuOTc2NiIvPjx0ZXh0IGZpbGw9IiMwMDAwMDAiIGZvbnQtZmFtaWx5PSJzYW5zLXNlcmlmIiBmb250LXNpemU9IjE0IiBsZW5ndGhBZGp1c3Q9InNwYWNpbmciIHRleHRMZW5ndGg9IjEwNSIgeD0iMTEzMS41IiB5PSIzMTQuMjE4OCI+T2JqZWN0SWQgcG9sbElkPC90ZXh0PjxyZWN0IGZpbGw9Im5vbmUiIGhlaWdodD0iNiIgc3R5bGU9InN0cm9rZTojQzgyOTMwO3N0cm9rZS13aWR0aDoxLjA7IiB3aWR0aD0iNiIgeD0iMTExOS41IiB5PSIzMjEuOTYwOSIvPjx0ZXh0IGZpbGw9IiMwMDAwMDAiIGZvbnQtZmFtaWx5PSJzYW5zLXNlcmlmIiBmb250LXNpemU9IjE0IiBsZW5ndGhBZGp1c3Q9InNwYWNpbmciIHRleHRMZW5ndGg9IjEwNSIgeD0iMTEzMS41IiB5PSIzMjkuMjAzMSI+T2JqZWN0SWQgdXNlcklkPC90ZXh0PjxyZWN0IGZpbGw9Im5vbmUiIGhlaWdodD0iNiIgc3R5bGU9InN0cm9rZTojQzgyOTMwO3N0cm9rZS13aWR0aDoxLjA7IiB3aWR0aD0iNiIgeD0iMTExOS41IiB5PSIzMzYuOTQ1MyIvPjx0ZXh0IGZpbGw9IiMwMDAwMDAiIGZvbnQtZmFtaWx5PSJzYW5zLXNlcmlmIiBmb250LXNpemU9IjE0IiBsZW5ndGhBZGp1c3Q9InNwYWNpbmciIHRleHRMZW5ndGg9IjEyNyIgeD0iMTEzMS41IiB5PSIzNDQuMTg3NSI+TnVtYmVyIG9wdGlvbkluZGV4PC90ZXh0PjxsaW5lIHN0eWxlPSJzdHJva2U6IzAwMDAwMDtzdHJva2Utd2lkdGg6MC41OyIgeDE9IjExMTIuNSIgeDI9IjEyNjMuNSIgeTE9IjM0OS45Mzc1IiB5Mj0iMzQ5LjkzNzUiLz48L2c+PCEtLWNsYXNzIEV2ZW50VGVhbS0tPjxnIGlkPSJlbGVtX0V2ZW50VGVhbSI+PHJlY3QgY29kZUxpbmU9IjEwMCIgZmlsbD0iI0QzRDNEMyIgaGVpZ2h0PSIxMzcuOTA2MyIgaWQ9IkV2ZW50VGVhbSIgcng9IjIuNSIgcnk9IjIuNSIgc3R5bGU9InN0cm9rZTojMDAwMDAwO3N0cm9rZS13aWR0aDowLjU7IiB3aWR0aD0iMjA4IiB4PSI1NDciIHk9IjEwNzIiLz48ZWxsaXBzZSBjeD0iNjE0Ljc1IiBjeT0iMTA4OCIgZmlsbD0iI0FERDFCMiIgcng9IjExIiByeT0iMTEiIHN0eWxlPSJzdHJva2U6IzE4MTgxODtzdHJva2Utd2lkdGg6MS4wOyIvPjxwYXRoIGQ9Ik02MTIuMzc1LDEwOTIuMjUgTDYxMi4zNzUsMTA5NCBMNjE3LjMxMjUsMTA5NCBMNjE3LjMxMjUsMTA5Mi4yNSBMNjEyLjM3NSwxMDkyLjI1IFogTTYxMy4wNjI1LDEwOTIuOTM3NSBRNjEzLjA2MjUsMTA5Mi45Mzc1IDYxMy4wNjI1LDEwODMuNzUgTDYxMS4zMTI1LDEwODMuNzUgUTYxMS4zMTI1LDEwODMuNzUgNjExLjMxMjUsMTA5Mi45Mzc1IEw2MTMuMDYyNSwxMDkyLjkzNzUgWiBNNjE2LjYyNSwxMDkyLjkzNzUgTDYxOC4zNzUsMTA5Mi45Mzc1IFE2MTguMzc1LDEwOTIuOTM3NSA2MTguMzc1LDEwOTAuMTI1IEw2MTYuNjI1LDEwOTAuMTI1IFE2MTYuNjI1LDEwOTAuMTI1IDYxNi42MjUsMTA5Mi45Mzc1IFogTTYxNi42MjUsMTA4My43NSBRNjE2LjYyNSwxMDgzLjc1IDYxNi42MjUsMTA4Ni41NjI1IEw2MTguMzc1LDEwODYuNTYyNSBRNjE4LjM3NSwxMDg2LjU2MjUgNjE4LjM3NSwxMDgzLjc1IEw2MTYuNjI1LDEwODMuNzUgWiBNNjEyLjM3NSwxMDg0LjQzNzUgTDYxNy4zMTI1LDEwODQuNDM3NSBMNjE3LjMxMjUsMTA4Mi42ODc1IEw2MTIuMzc1LDEwODIuNjg3NSBMNjEyLjM3NSwxMDg0LjQzNzUgWiAiIGZpbGw9IiMwMDAwMDAiLz48dGV4dCBmaWxsPSIjMDAwMDAwIiBmb250LWZhbWlseT0ic2Fucy1zZXJpZiIgZm9udC1zaXplPSIxNCIgbGVuZ3RoQWRqdXN0PSJzcGFjaW5nIiB0ZXh0TGVuZ3RoPSI2NCIgeD0iNjM1LjI1IiB5PSIxMDkzLjc0MjIiPkV2ZW50VGVhbTwvdGV4dD48bGluZSBzdHlsZT0ic3Ryb2tlOiMwMDAwMDA7c3Ryb2tlLXdpZHRoOjAuNTsiIHgxPSI1NDgiIHgyPSI3NTQiIHkxPSIxMTA0IiB5Mj0iMTEwNCIvPjxyZWN0IGZpbGw9Im5vbmUiIGhlaWdodD0iNiIgc3R5bGU9InN0cm9rZTojQzgyOTMwO3N0cm9rZS13aWR0aDoxLjA7IiB3aWR0aD0iNiIgeD0iNTU1IiB5PSIxMTEzLjk5MjIiLz48dGV4dCBmaWxsPSIjMDAwMDAwIiBmb250LWZhbWlseT0ic2Fucy1zZXJpZiIgZm9udC1zaXplPSIxNCIgbGVuZ3RoQWRqdXN0PSJzcGFjaW5nIiB0ZXh0TGVuZ3RoPSI3NyIgeD0iNTY3IiB5PSIxMTIxLjIzNDQiPk9iamVjdElkIGlkPC90ZXh0PjxyZWN0IGZpbGw9Im5vbmUiIGhlaWdodD0iNiIgc3R5bGU9InN0cm9rZTojQzgyOTMwO3N0cm9rZS13aWR0aDoxLjA7IiB3aWR0aD0iNiIgeD0iNTU1IiB5PSIxMTI4Ljk3NjYiLz48dGV4dCBmaWxsPSIjMDAwMDAwIiBmb250LWZhbWlseT0ic2Fucy1zZXJpZiIgZm9udC1zaXplPSIxNCIgbGVuZ3RoQWRqdXN0PSJzcGFjaW5nIiB0ZXh0TGVuZ3RoPSIxMTIiIHg9IjU2NyIgeT0iMTEzNi4yMTg4Ij5PYmplY3RJZCBldmVudElkPC90ZXh0PjxyZWN0IGZpbGw9Im5vbmUiIGhlaWdodD0iNiIgc3R5bGU9InN0cm9rZTojQzgyOTMwO3N0cm9rZS13aWR0aDoxLjA7IiB3aWR0aD0iNiIgeD0iNTU1IiB5PSIxMTQzLjk2MDkiLz48dGV4dCBmaWxsPSIjMDAwMDAwIiBmb250LWZhbWlseT0ic2Fucy1zZXJpZiIgZm9udC1zaXplPSIxNCIgbGVuZ3RoQWRqdXN0PSJzcGFjaW5nIiB0ZXh0TGVuZ3RoPSIxMDYiIHg9IjU2NyIgeT0iMTE1MS4yMDMxIj5PYmplY3RJZCB0ZWFtSWQ8L3RleHQ+PHJlY3QgZmlsbD0ibm9uZSIgaGVpZ2h0PSI2IiBzdHlsZT0ic3Ryb2tlOiNDODI5MzA7c3Ryb2tlLXdpZHRoOjEuMDsiIHdpZHRoPSI2IiB4PSI1NTUiIHk9IjExNTguOTQ1MyIvPjx0ZXh0IGZpbGw9IiMwMDAwMDAiIGZvbnQtZmFtaWx5PSJzYW5zLXNlcmlmIiBmb250LXNpemU9IjE0IiBsZW5ndGhBZGp1c3Q9InNwYWNpbmciIHRleHRMZW5ndGg9Ijc3IiB4PSI1NjciIHk9IjExNjYuMTg3NSI+U3RyaW5nIHJvbGU8L3RleHQ+PHJlY3QgZmlsbD0ibm9uZSIgaGVpZ2h0PSI2IiBzdHlsZT0ic3Ryb2tlOiNDODI5MzA7c3Ryb2tlLXdpZHRoOjEuMDsiIHdpZHRoPSI2IiB4PSI1NTUiIHk9IjExNzMuOTI5NyIvPjx0ZXh0IGZpbGw9IiMwMDAwMDAiIGZvbnQtZmFtaWx5PSJzYW5zLXNlcmlmIiBmb250LXNpemU9IjE0IiBsZW5ndGhBZGp1c3Q9InNwYWNpbmciIHRleHRMZW5ndGg9IjE4MiIgeD0iNTY3IiB5PSIxMTgxLjE3MTkiPlN0cmluZyBwYXJ0aWNpcGF0aW9uU3RhdHVzPC90ZXh0PjxyZWN0IGZpbGw9Im5vbmUiIGhlaWdodD0iNiIgc3R5bGU9InN0cm9rZTojQzgyOTMwO3N0cm9rZS13aWR0aDoxLjA7IiB3aWR0aD0iNiIgeD0iNTU1IiB5PSIxMTg4LjkxNDEiLz48dGV4dCBmaWxsPSIjMDAwMDAwIiBmb250LWZhbWlseT0ic2Fucy1zZXJpZiIgZm9udC1zaXplPSIxNCIgbGVuZ3RoQWRqdXN0PSJzcGFjaW5nIiB0ZXh0TGVuZ3RoPSI5OSIgeD0iNTY3IiB5PSIxMTk2LjE1NjMiPkRhdGUgc3RhcnRUaW1lPC90ZXh0PjxsaW5lIHN0eWxlPSJzdHJva2U6IzAwMDAwMDtzdHJva2Utd2lkdGg6MC41OyIgeDE9IjU0OCIgeDI9Ijc1NCIgeTE9IjEyMDEuOTA2MyIgeTI9IjEyMDEuOTA2MyIvPjwvZz48IS0tY2xhc3MgQ2F0ZWdvcnktLT48ZyBpZD0iZWxlbV9DYXRlZ29yeSI+PHJlY3QgY29kZUxpbmU9IjEwOSIgZmlsbD0iI0QzRDNEMyIgaGVpZ2h0PSI5Mi45NTMxIiBpZD0iQ2F0ZWdvcnkiIHJ4PSIyLjUiIHJ5PSIyLjUiIHN0eWxlPSJzdHJva2U6IzAwMDAwMDtzdHJva2Utd2lkdGg6MC41OyIgd2lkdGg9IjIwMSIgeD0iMTQ3LjUiIHk9IjQ0OCIvPjxlbGxpcHNlIGN4PSIyMTUuNzUiIGN5PSI0NjQiIGZpbGw9IiNBREQxQjIiIHJ4PSIxMSIgcnk9IjExIiBzdHlsZT0ic3Ryb2tlOiMxODE4MTg7c3Ryb2tlLXdpZHRoOjEuMDsiLz48cGF0aCBkPSJNMjEzLjM3NSw0NjguMjUgTDIxMy4zNzUsNDcwIEwyMTguMzEyNSw0NzAgTDIxOC4zMTI1LDQ2OC4yNSBMMjEzLjM3NSw0NjguMjUgWiBNMjE0LjA2MjUsNDY4LjkzNzUgUTIxNC4wNjI1LDQ2OC45Mzc1IDIxNC4wNjI1LDQ1OS43NSBMMjEyLjMxMjUsNDU5Ljc1IFEyMTIuMzEyNSw0NTkuNzUgMjEyLjMxMjUsNDY4LjkzNzUgTDIxNC4wNjI1LDQ2OC45Mzc1IFogTTIxNy42MjUsNDY4LjkzNzUgTDIxOS4zNzUsNDY4LjkzNzUgUTIxOS4zNzUsNDY4LjkzNzUgMjE5LjM3NSw0NjYuMTI1IEwyMTcuNjI1LDQ2Ni4xMjUgUTIxNy42MjUsNDY2LjEyNSAyMTcuNjI1LDQ2OC45Mzc1IFogTTIxNy42MjUsNDU5Ljc1IFEyMTcuNjI1LDQ1OS43NSAyMTcuNjI1LDQ2Mi41NjI1IEwyMTkuMzc1LDQ2Mi41NjI1IFEyMTkuMzc1LDQ2Mi41NjI1IDIxOS4zNzUsNDU5Ljc1IEwyMTcuNjI1LDQ1OS43NSBaIE0yMTMuMzc1LDQ2MC40Mzc1IEwyMTguMzEyNSw0NjAuNDM3NSBMMjE4LjMxMjUsNDU4LjY4NzUgTDIxMy4zNzUsNDU4LjY4NzUgTDIxMy4zNzUsNDYwLjQzNzUgWiAiIGZpbGw9IiMwMDAwMDAiLz48dGV4dCBmaWxsPSIjMDAwMDAwIiBmb250LWZhbWlseT0ic2Fucy1zZXJpZiIgZm9udC1zaXplPSIxNCIgbGVuZ3RoQWRqdXN0PSJzcGFjaW5nIiB0ZXh0TGVuZ3RoPSI1NiIgeD0iMjM2LjI1IiB5PSI0NjkuNzQyMiI+Q2F0ZWdvcnk8L3RleHQ+PGxpbmUgc3R5bGU9InN0cm9rZTojMDAwMDAwO3N0cm9rZS13aWR0aDowLjU7IiB4MT0iMTQ4LjUiIHgyPSIzNDcuNSIgeTE9IjQ4MCIgeTI9IjQ4MCIvPjxyZWN0IGZpbGw9Im5vbmUiIGhlaWdodD0iNiIgc3R5bGU9InN0cm9rZTojQzgyOTMwO3N0cm9rZS13aWR0aDoxLjA7IiB3aWR0aD0iNiIgeD0iMTU1LjUiIHk9IjQ4OS45OTIyIi8+PHRleHQgZmlsbD0iIzAwMDAwMCIgZm9udC1mYW1pbHk9InNhbnMtc2VyaWYiIGZvbnQtc2l6ZT0iMTQiIGxlbmd0aEFkanVzdD0ic3BhY2luZyIgdGV4dExlbmd0aD0iNzciIHg9IjE2Ny41IiB5PSI0OTcuMjM0NCI+T2JqZWN0SWQgaWQ8L3RleHQ+PHJlY3QgZmlsbD0ibm9uZSIgaGVpZ2h0PSI2IiBzdHlsZT0ic3Ryb2tlOiNDODI5MzA7c3Ryb2tlLXdpZHRoOjEuMDsiIHdpZHRoPSI2IiB4PSIxNTUuNSIgeT0iNTA0Ljk3NjYiLz48dGV4dCBmaWxsPSIjMDAwMDAwIiBmb250LWZhbWlseT0ic2Fucy1zZXJpZiIgZm9udC1zaXplPSIxNCIgbGVuZ3RoQWRqdXN0PSJzcGFjaW5nIiB0ZXh0TGVuZ3RoPSI3OCIgeD0iMTY3LjUiIHk9IjUxMi4yMTg4Ij5TdHJpbmcgbmFtZTwvdGV4dD48cmVjdCBmaWxsPSJub25lIiBoZWlnaHQ9IjYiIHN0eWxlPSJzdHJva2U6I0M4MjkzMDtzdHJva2Utd2lkdGg6MS4wOyIgd2lkdGg9IjYiIHg9IjE1NS41IiB5PSI1MTkuOTYwOSIvPjx0ZXh0IGZpbGw9IiMwMDAwMDAiIGZvbnQtZmFtaWx5PSJzYW5zLXNlcmlmIiBmb250LXNpemU9IjE0IiBsZW5ndGhBZGp1c3Q9InNwYWNpbmciIHRleHRMZW5ndGg9IjE3NSIgeD0iMTY3LjUiIHk9IjUyNy4yMDMxIj5PYmplY3RJZCBwYXJlbnRDYXRlZ29yeUlkPC90ZXh0PjxsaW5lIHN0eWxlPSJzdHJva2U6IzAwMDAwMDtzdHJva2Utd2lkdGg6MC41OyIgeDE9IjE0OC41IiB4Mj0iMzQ3LjUiIHkxPSI1MzIuOTUzMSIgeTI9IjUzMi45NTMxIi8+PC9nPjxnIGlkPSJlbGVtX0dNTjMzIj48cGF0aCBkPSJNNjY3LDY0LjUgTDY2Nyw3OS41IEw2MzEuODEsODMuNSBMNjY3LDg3LjUgTDY2NywxMDIuMzI4MSBBMCwwIDAgMCAwIDY2NywxMDIuMzI4MSBMMTEzNSwxMDIuMzI4MSBBMCwwIDAgMCAwIDExMzUsMTAyLjMyODEgTDExMzUsNzQuNSBMMTEyNSw2NC41IEw2NjcsNjQuNSBBMCwwIDAgMCAwIDY2Nyw2NC41ICIgZmlsbD0iI0ZFRkZERCIgc3R5bGU9InN0cm9rZTojMTgxODE4O3N0cm9rZS13aWR0aDowLjU7Ii8+PHBhdGggZD0iTTExMjUsNjQuNSBMMTEyNSw3NC41IEwxMTM1LDc0LjUgTDExMjUsNjQuNSAiIGZpbGw9IiNGRUZGREQiIHN0eWxlPSJzdHJva2U6IzE4MTgxODtzdHJva2Utd2lkdGg6MC41OyIvPjx0ZXh0IGZpbGw9IiMwMDAwMDAiIGZvbnQtZmFtaWx5PSJzYW5zLXNlcmlmIiBmb250LXNpemU9IjEzIiBsZW5ndGhBZGp1c3Q9InNwYWNpbmciIHRleHRMZW5ndGg9IjQzNyIgeD0iNjczIiB5PSI4MS43ODkxIj5Vc2VycywgVGlja2V0cywgRXZlbnRzLCBldGMuLCBhcmUgc3RvcmVkIGluIHNlcGFyYXRlIGNvbGxlY3Rpb25zLjwvdGV4dD48dGV4dCBmaWxsPSIjMDAwMDAwIiBmb250LWZhbWlseT0ic2Fucy1zZXJpZiIgZm9udC1zaXplPSIxMyIgbGVuZ3RoQWRqdXN0PSJzcGFjaW5nIiB0ZXh0TGVuZ3RoPSI0NDciIHg9IjY3MyIgeT0iOTUuNzAzMSI+UmVsYXRpb25zaGlwcyB1c2UgT2JqZWN0SWQgcmVmZXJlbmNlcyBvciBlbWJlZGRpbmcgZm9yIHNtYWxsIGRhdGEuPC90ZXh0PjwvZz48IS0tbGluayBVc2VyIHRvIE1lbWJlcnNoaXAtLT48ZyBpZD0ibGlua19Vc2VyX01lbWJlcnNoaXAiPjxwYXRoIGNvZGVMaW5lPSIxMTYiIGQ9Ik01MTAsMTYwIEM1MTAsMTg0LjMgNTEwLDIxMS4wNyA1MTAsMjM0LjgxICIgZmlsbD0ibm9uZSIgaWQ9IlVzZXItTWVtYmVyc2hpcCIgc3R5bGU9InN0cm9rZTojMDAwMDAwO3N0cm9rZS13aWR0aDoxLjA7Ii8+PHRleHQgZmlsbD0iIzAwMDAwMCIgZm9udC1mYW1pbHk9InNhbnMtc2VyaWYiIGZvbnQtc2l6ZT0iMTMiIGxlbmd0aEFkanVzdD0ic3BhY2luZyIgdGV4dExlbmd0aD0iMjEiIHg9IjUxMSIgeT0iMjAzLjI4OTEiPmhhczwvdGV4dD48dGV4dCBmaWxsPSIjMDAwMDAwIiBmb250LWZhbWlseT0ic2Fucy1zZXJpZiIgZm9udC1zaXplPSIxMyIgbGVuZ3RoQWRqdXN0PSJzcGFjaW5nIiB0ZXh0TGVuZ3RoPSI3IiB4PSI1MDIuNjY2NCIgeT0iMTgwLjI0ODgiPjE8L3RleHQ+PHRleHQgZmlsbD0iIzAwMDAwMCIgZm9udC1mYW1pbHk9InNhbnMtc2VyaWYiIGZvbnQtc2l6ZT0iMTMiIGxlbmd0aEFkanVzdD0ic3BhY2luZyIgdGV4dExlbmd0aD0iMjYiIHg9IjQ4Mi40OTY5IiB5PSIyMjUuNDA1NyI+MC4uMTwvdGV4dD48L2c+PCEtLWxpbmsgVXNlciB0byBTcG9ydC0tPjxnIGlkPSJsaW5rX1VzZXJfU3BvcnQiPjxwYXRoIGNvZGVMaW5lPSIxMTciIGQ9Ik0zODguMTcsMTI4LjEyIEMzMjMuNDIsMTU0LjE3IDI0NC4xOCwxOTAuODEgMTgwLDIzNSBDMTY3LjY3LDI0My40OSAxNTUuNTcsMjU0LjI5IDE0NS4wNCwyNjQuNzggIiBmaWxsPSJub25lIiBpZD0iVXNlci1TcG9ydCIgc3R5bGU9InN0cm9rZTojMDAwMDAwO3N0cm9rZS13aWR0aDoxLjA7Ii8+PHRleHQgZmlsbD0iIzAwMDAwMCIgZm9udC1mYW1pbHk9InNhbnMtc2VyaWYiIGZvbnQtc2l6ZT0iMTMiIGxlbmd0aEFkanVzdD0ic3BhY2luZyIgdGV4dExlbmd0aD0iMTIzIiB4PSIyNDkiIHk9IjIwMy4yODkxIj5oYXNfc2VsZWN0ZWRTcG9ydHM8L3RleHQ+PHRleHQgZmlsbD0iIzAwMDAwMCIgZm9udC1mYW1pbHk9InNhbnMtc2VyaWYiIGZvbnQtc2l6ZT0iMTMiIGxlbmd0aEFkanVzdD0ic3BhY2luZyIgdGV4dExlbmd0aD0iNyIgeD0iMzczLjUzMjciIHk9IjEyOS43NjMyIj4xPC90ZXh0Pjx0ZXh0IGZpbGw9IiMwMDAwMDAiIGZvbnQtZmFtaWx5PSJzYW5zLXNlcmlmIiBmb250LXNpemU9IjEzIiBsZW5ndGhBZGp1c3Q9InNwYWNpbmciIHRleHRMZW5ndGg9IjYiIHg9IjE0NC45NTciIHk9IjI1NS40NDM4Ij4qPC90ZXh0PjwvZz48IS0tbGluayBVc2VyIHRvIFRlYW0tLT48ZyBpZD0ibGlua19Vc2VyX1RlYW0iPjxwYXRoIGNvZGVMaW5lPSIxMTgiIGQ9Ik02MzEuNjEsMTUxLjY0IEM2MzcuNDYsMTU0LjUzIDY0My4yOCwxNTcuMzMgNjQ5LDE2MCBDNzMxLjI2LDE5OC40IDc4Ny45MywxNTkuOTQgODM5LDIzNSBDODczLjUsMjg1LjcxIDg3MS40NiwzMjAuOTYgODM5LDM3MyBDODAwLjU2LDQzNC42NCA3MjAuNDEsNDY1LjYyIDY2Mi4wMSw0ODAuNTkgIiBmaWxsPSJub25lIiBpZD0iVXNlci1UZWFtIiBzdHlsZT0ic3Ryb2tlOiMwMDAwMDA7c3Ryb2tlLXdpZHRoOjEuMDsiLz48dGV4dCBmaWxsPSIjMDAwMDAwIiBmb250LWZhbWlseT0ic2Fucy1zZXJpZiIgZm9udC1zaXplPSIxMyIgbGVuZ3RoQWRqdXN0PSJzcGFjaW5nIiB0ZXh0TGVuZ3RoPSI0NSIgeD0iODY2IiB5PSIzMDkuNzg5MSI+Zm9sbG93czwvdGV4dD48dGV4dCBmaWxsPSIjMDAwMDAwIiBmb250LWZhbWlseT0ic2Fucy1zZXJpZiIgZm9udC1zaXplPSIxMyIgbGVuZ3RoQWRqdXN0PSJzcGFjaW5nIiB0ZXh0TGVuZ3RoPSI3IiB4PSI2MzkuNjI0OSIgeT0iMTU0LjkxMDciPjE8L3RleHQ+PHRleHQgZmlsbD0iIzAwMDAwMCIgZm9udC1mYW1pbHk9InNhbnMtc2VyaWYiIGZvbnQtc2l6ZT0iMTMiIGxlbmd0aEFkanVzdD0ic3BhY2luZyIgdGV4dExlbmd0aD0iNiIgeD0iNjY5Ljg4NjEiIHk9IjQ3Ny42OTkzIj4qPC90ZXh0PjwvZz48IS0tbGluayBVc2VyIHRvIFRpY2tldC0tPjxnIGlkPSJsaW5rX1VzZXJfVGlja2V0Ij48cGF0aCBjb2RlTGluZT0iMTE5IiBkPSJNMzg4LjMyLDg2LjMgQzIzOS4xNyw5NS42OSA2LDEzNi45NCA2LDMwMyBDNiwzMDMgNiwzMDMgNiw5MTQgQzYsOTg0Ljg3IDYwLjUzLDEwNDYuODYgMTA4Ljg5LDEwODcuOTEgIiBmaWxsPSJub25lIiBpZD0iVXNlci1UaWNrZXQiIHN0eWxlPSJzdHJva2U6IzAwMDAwMDtzdHJva2Utd2lkdGg6MS4wOyIvPjx0ZXh0IGZpbGw9IiMwMDAwMDAiIGZvbnQtZmFtaWx5PSJzYW5zLXNlcmlmIiBmb250LXNpemU9IjEzIiBsZW5ndGhBZGp1c3Q9InNwYWNpbmciIHRleHRMZW5ndGg9IjI3IiB4PSI3IiB5PSI1ODQuMjg5MSI+b3duczwvdGV4dD48dGV4dCBmaWxsPSIjMDAwMDAwIiBmb250LWZhbWlseT0ic2Fucy1zZXJpZiIgZm9udC1zaXplPSIxMyIgbGVuZ3RoQWRqdXN0PSJzcGFjaW5nIiB0ZXh0TGVuZ3RoPSI3IiB4PSIzNzMuNjkxOCIgeT0iODUuMzk0OCI+MTwvdGV4dD48dGV4dCBmaWxsPSIjMDAwMDAwIiBmb250LWZhbWlseT0ic2Fucy1zZXJpZiIgZm9udC1zaXplPSIxMyIgbGVuZ3RoQWRqdXN0PSJzcGFjaW5nIiB0ZXh0TGVuZ3RoPSI2IiB4PSI5NS4wNDEyIiB5PSIxMDgxLjEwNzQiPio8L3RleHQ+PC9nPjwhLS1saW5rIFVzZXIgdG8gUG9sbFZvdGUtLT48ZyBpZD0ibGlua19Vc2VyX1BvbGxWb3RlIj48cGF0aCBjb2RlTGluZT0iMTIwIiBkPSJNNjMxLjU4LDE1NC4xIEM2MzcuMzksMTU2LjI5IDY0My4yMSwxNTguMjggNjQ5LDE2MCBDODA2LjcsMjA2Ljk1IDg2Mi41NSwxMzYuMDggMTAxOCwxOTAgQzEwNTYuMzQsMjAzLjMgMTA5NC4zOSwyMjcuMzEgMTEyNC43NCwyNDkuNzggIiBmaWxsPSJub25lIiBpZD0iVXNlci1Qb2xsVm90ZSIgc3R5bGU9InN0cm9rZTojMDAwMDAwO3N0cm9rZS13aWR0aDoxLjA7Ii8+PHRleHQgZmlsbD0iIzAwMDAwMCIgZm9udC1mYW1pbHk9InNhbnMtc2VyaWYiIGZvbnQtc2l6ZT0iMTMiIGxlbmd0aEFkanVzdD0ic3BhY2luZyIgdGV4dExlbmd0aD0iMzQiIHg9IjEwNTAiIHk9IjIwMy4yODkxIj5jYXN0czwvdGV4dD48dGV4dCBmaWxsPSIjMDAwMDAwIiBmb250LWZhbWlseT0ic2Fucy1zZXJpZiIgZm9udC1zaXplPSIxMyIgbGVuZ3RoQWRqdXN0PSJzcGFjaW5nIiB0ZXh0TGVuZ3RoPSI3IiB4PSI2MzkuNzA5IiB5PSIxNzYuMzMzMSI+MTwvdGV4dD48dGV4dCBmaWxsPSIjMDAwMDAwIiBmb250LWZhbWlseT0ic2Fucy1zZXJpZiIgZm9udC1zaXplPSIxMyIgbGVuZ3RoQWRqdXN0PSJzcGFjaW5nIiB0ZXh0TGVuZ3RoPSI2IiB4PSIxMTA5LjAwODEiIHk9IjI0MC4yMjI1Ij4qPC90ZXh0PjwvZz48IS0tbGluayBVc2VyIHRvIFBvc3QtLT48ZyBpZD0ibGlua19Vc2VyX1Bvc3QiPjxwYXRoIGNvZGVMaW5lPSIxMjEiIGQ9Ik02MzEuNzksMTUzLjQ2IEM2MzcuNTQsMTU1LjgyIDY0My4yOSwxNTguMDIgNjQ5LDE2MCBDNzY3LjA4LDIwMC45MyA4NTIuOTYsMTI5LjUzIDkyMCwyMzUgQzEwMjAuNTQsMzkzLjE3IDc4NS42Niw1NzEuMjMgNjYyLjQ0LDY1MC4xICIgZmlsbD0ibm9uZSIgaWQ9IlVzZXItUG9zdCIgc3R5bGU9InN0cm9rZTojMDAwMDAwO3N0cm9rZS13aWR0aDoxLjA7Ii8+PHRleHQgZmlsbD0iIzAwMDAwMCIgZm9udC1mYW1pbHk9InNhbnMtc2VyaWYiIGZvbnQtc2l6ZT0iMTMiIGxlbmd0aEFkanVzdD0ic3BhY2luZyIgdGV4dExlbmd0aD0iMzkiIHg9IjkyMSIgeT0iNDE2LjI4OTEiPndyaXRlczwvdGV4dD48dGV4dCBmaWxsPSIjMDAwMDAwIiBmb250LWZhbWlseT0ic2Fucy1zZXJpZiIgZm9udC1zaXplPSIxMyIgbGVuZ3RoQWRqdXN0PSJzcGFjaW5nIiB0ZXh0TGVuZ3RoPSI3IiB4PSI2MzkuNDI0OSIgeT0iMTcwLjQzOTUiPjE8L3RleHQ+PHRleHQgZmlsbD0iIzAwMDAwMCIgZm9udC1mYW1pbHk9InNhbnMtc2VyaWYiIGZvbnQtc2l6ZT0iMTMiIGxlbmd0aEFkanVzdD0ic3BhY2luZyIgdGV4dExlbmd0aD0iNiIgeD0iNjY5LjkxMDQiIHk9IjY0NC4zOTgyIj4qPC90ZXh0PjwvZz48IS0tbGluayBTcG9ydCB0byBUZWFtLS0+PGcgaWQ9ImxpbmtfU3BvcnRfVGVhbSI+PHBhdGggY29kZUxpbmU9IjEyMyIgZD0iTTE0Mi4yNywzNDMuMDkgQzE1My4xNiwzNTQuMiAxNjYuMTQsMzY1LjM5IDE4MCwzNzMgQzI0NS4xNiw0MDguNzggNDM2LjI3LDQyMi4yMyA1MDYsNDQ4IEM1MTEuOTIsNDUwLjE5IDUxNy45NCw0NTIuNjkgNTIzLjkxLDQ1NS4zOCAiIGZpbGw9Im5vbmUiIGlkPSJTcG9ydC1UZWFtIiBzdHlsZT0ic3Ryb2tlOiMwMDAwMDA7c3Ryb2tlLXdpZHRoOjEuMDsiLz48dGV4dCBmaWxsPSIjMDAwMDAwIiBmb250LWZhbWlseT0ic2Fucy1zZXJpZiIgZm9udC1zaXplPSIxMyIgbGVuZ3RoQWRqdXN0PSJzcGFjaW5nIiB0ZXh0TGVuZ3RoPSI1NCIgeD0iMzU4IiB5PSI0MTYuMjg5MSI+aW5jbHVkZXM8L3RleHQ+PHRleHQgZmlsbD0iIzAwMDAwMCIgZm9udC1mYW1pbHk9InNhbnMtc2VyaWYiIGZvbnQtc2l6ZT0iMTMiIGxlbmd0aEFkanVzdD0ic3BhY2luZyIgdGV4dExlbmd0aD0iNyIgeD0iMTQ4LjI0NjEiIHk9IjM2My4yOTYxIj4xPC90ZXh0Pjx0ZXh0IGZpbGw9IiMwMDAwMDAiIGZvbnQtZmFtaWx5PSJzYW5zLXNlcmlmIiBmb250LXNpemU9IjEzIiBsZW5ndGhBZGp1c3Q9InNwYWNpbmciIHRleHRMZW5ndGg9IjYiIHg9IjUxMC4wMjUyIiB5PSI0NDkuNzMxOSI+KjwvdGV4dD48L2c+PCEtLWxpbmsgU3BvcnQgdG8gQ2F0ZWdvcnktLT48ZyBpZD0ibGlua19TcG9ydF9DYXRlZ29yeSI+PHBhdGggY29kZUxpbmU9IjEyNCIgZD0iTTEzOC43MiwzNDMuMTUgQzE2MC42OSwzNzMuMzggMTkxLjQ2LDQxNS43MSAyMTQuNzYsNDQ3Ljc2ICIgZmlsbD0ibm9uZSIgaWQ9IlNwb3J0LUNhdGVnb3J5IiBzdHlsZT0ic3Ryb2tlOiMwMDAwMDA7c3Ryb2tlLXdpZHRoOjEuMDsiLz48dGV4dCBmaWxsPSIjMDAwMDAwIiBmb250LWZhbWlseT0ic2Fucy1zZXJpZiIgZm9udC1zaXplPSIxMyIgbGVuZ3RoQWRqdXN0PSJzcGFjaW5nIiB0ZXh0TGVuZ3RoPSI2MSIgeD0iMTkzIiB5PSI0MTYuMjg5MSI+YmVsb25nc1RvPC90ZXh0Pjx0ZXh0IGZpbGw9IiMwMDAwMDAiIGZvbnQtZmFtaWx5PSJzYW5zLXNlcmlmIiBmb250LXNpemU9IjEzIiBsZW5ndGhBZGp1c3Q9InNwYWNpbmciIHRleHRMZW5ndGg9IjYiIHg9IjEzNi45Njg4IiB5PSIzNjMuMzY2NCI+KjwvdGV4dD48dGV4dCBmaWxsPSIjMDAwMDAwIiBmb250LWZhbWlseT0ic2Fucy1zZXJpZiIgZm9udC1zaXplPSIxMyIgbGVuZ3RoQWRqdXN0PSJzcGFjaW5nIiB0ZXh0TGVuZ3RoPSI2IiB4PSIyMDIuNzU3OCIgeT0iNDM4LjMxMDgiPio8L3RleHQ+PC9nPjwhLS1saW5rIENhdGVnb3J5IHRvIENhdGVnb3J5LS0+PGcgaWQ9ImxpbmtfQ2F0ZWdvcnlfQ2F0ZWdvcnkiPjxwYXRoIGNvZGVMaW5lPSIxMjYiIGQ9Ik0zNDguNzUsNDc5LjM4IEMzNjkuMDIsNDgxLjA1IDM4My41LDQ4Ni4wOSAzODMuNSw0OTQuNSBDMzgzLjUsNTAyLjkxIDM2OS4wMiw1MDcuOTUgMzQ4Ljc1LDUwOS42MiAiIGZpbGw9Im5vbmUiIGlkPSJDYXRlZ29yeS1DYXRlZ29yeSIgc3R5bGU9InN0cm9rZTojMDAwMDAwO3N0cm9rZS13aWR0aDoxLjA7Ii8+PHRleHQgZmlsbD0iIzAwMDAwMCIgZm9udC1mYW1pbHk9InNhbnMtc2VyaWYiIGZvbnQtc2l6ZT0iMTMiIGxlbmd0aEFkanVzdD0ic3BhY2luZyIgdGV4dExlbmd0aD0iMTEwIiB4PSIzODkuNSIgeT0iNTAwLjI4OTEiPmhhc1N1YmNhdGVnb3JpZXM8L3RleHQ+PHRleHQgZmlsbD0iIzAwMDAwMCIgZm9udC1mYW1pbHk9InNhbnMtc2VyaWYiIGZvbnQtc2l6ZT0iMTMiIGxlbmd0aEFkanVzdD0ic3BhY2luZyIgdGV4dExlbmd0aD0iNyIgeD0iMzU2LjQwNTkiIHk9IjQ3Ny4xMTY2Ij4xPC90ZXh0Pjx0ZXh0IGZpbGw9IiMwMDAwMDAiIGZvbnQtZmFtaWx5PSJzYW5zLXNlcmlmIiBmb250LXNpemU9IjEzIiBsZW5ndGhBZGp1c3Q9InNwYWNpbmciIHRleHRMZW5ndGg9IjYiIHg9IjM1Ni4zNjkxIiB5PSI1MDkuNTc3NCI+KjwvdGV4dD48L2c+PCEtLWxpbmsgRXZlbnQgdG8gVGlja2V0LS0+PGcgaWQ9ImxpbmtfRXZlbnRfVGlja2V0Ij48cGF0aCBjb2RlTGluZT0iMTI4IiBkPSJNNDE1LjMyLDk3Ny4yNSBDMzY0Ljc3LDEwMTIuNTEgMzAyLjY1LDEwNTUuODQgMjU1LjIyLDEwODguOTMgIiBmaWxsPSJub25lIiBpZD0iRXZlbnQtVGlja2V0IiBzdHlsZT0ic3Ryb2tlOiMwMDAwMDA7c3Ryb2tlLXdpZHRoOjEuMDsiLz48dGV4dCBmaWxsPSIjMDAwMDAwIiBmb250LWZhbWlseT0ic2Fucy1zZXJpZiIgZm9udC1zaXplPSIxMyIgbGVuZ3RoQWRqdXN0PSJzcGFjaW5nIiB0ZXh0TGVuZ3RoPSIyMSIgeD0iMzY1IiB5PSIxMDI1LjI4OTEiPmhhczwvdGV4dD48dGV4dCBmaWxsPSIjMDAwMDAwIiBmb250LWZhbWlseT0ic2Fucy1zZXJpZiIgZm9udC1zaXplPSIxMyIgbGVuZ3RoQWRqdXN0PSJzcGFjaW5nIiB0ZXh0TGVuZ3RoPSI3IiB4PSI0MDAuNTIwNyIgeT0iOTgxLjM2MzIiPjE8L3RleHQ+PHRleHQgZmlsbD0iIzAwMDAwMCIgZm9udC1mYW1pbHk9InNhbnMtc2VyaWYiIGZvbnQtc2l6ZT0iMTMiIGxlbmd0aEFkanVzdD0ic3BhY2luZyIgdGV4dExlbmd0aD0iNiIgeD0iMjYzLjA4MDIiIHk9IjEwODIuMjMyNiI+KjwvdGV4dD48L2c+PCEtLWxpbmsgRXZlbnQgdG8gU3BvcnQtLT48ZyBpZD0ibGlua19FdmVudF9TcG9ydCI+PHBhdGggY29kZUxpbmU9IjEyOSIgZD0iTTQxNS4yMyw5MDMuMDMgQzMzMC4yNCw4ODkuMzkgMjA3LjE0LDg1NS4wOSAxNDQsNzY5IEM0OC40OCw2MzguNzYgODIuMDcsNDI4LjgxIDEwMS4zMywzNDMuMiAiIGZpbGw9Im5vbmUiIGlkPSJFdmVudC1TcG9ydCIgc3R5bGU9InN0cm9rZTojMDAwMDAwO3N0cm9rZS13aWR0aDoxLjA7Ii8+PHRleHQgZmlsbD0iIzAwMDAwMCIgZm9udC1mYW1pbHk9InNhbnMtc2VyaWYiIGZvbnQtc2l6ZT0iMTMiIGxlbmd0aEFkanVzdD0ic3BhY2luZyIgdGV4dExlbmd0aD0iNjEiIHg9Ijg0IiB5PSI1ODQuMjg5MSI+YmVsb25nc1RvPC90ZXh0Pjx0ZXh0IGZpbGw9IiMwMDAwMDAiIGZvbnQtZmFtaWx5PSJzYW5zLXNlcmlmIiBmb250LXNpemU9IjEzIiBsZW5ndGhBZGp1c3Q9InNwYWNpbmciIHRleHRMZW5ndGg9IjciIHg9IjQwMC40MjMzIiB5PSI5MDAuOTk2OSI+MTwvdGV4dD48dGV4dCBmaWxsPSIjMDAwMDAwIiBmb250LWZhbWlseT0ic2Fucy1zZXJpZiIgZm9udC1zaXplPSIxMyIgbGVuZ3RoQWRqdXN0PSJzcGFjaW5nIiB0ZXh0TGVuZ3RoPSI3IiB4PSI5Mi4xNDg3IiB5PSIzNjMuMTM2NCI+MTwvdGV4dD48L2c+PCEtLWxpbmsgRXZlbnQgdG8gRXZlbnRUZWFtLS0+PGcgaWQ9ImxpbmtfRXZlbnRfRXZlbnRUZWFtIj48cGF0aCBjb2RlTGluZT0iMTMwIiBkPSJNNTQ5LjcsOTgyLjExIEM1NjcuODgsMTAxMC40NSA1ODguOTQsMTA0My4yOCA2MDcuMTQsMTA3MS42NCAiIGZpbGw9Im5vbmUiIGlkPSJFdmVudC1FdmVudFRlYW0iIHN0eWxlPSJzdHJva2U6IzAwMDAwMDtzdHJva2Utd2lkdGg6MS4wOyIvPjx0ZXh0IGZpbGw9IiMwMDAwMDAiIGZvbnQtZmFtaWx5PSJzYW5zLXNlcmlmIiBmb250LXNpemU9IjEzIiBsZW5ndGhBZGp1c3Q9InNwYWNpbmciIHRleHRMZW5ndGg9IjIxIiB4PSI1ODAiIHk9IjEwMjUuMjg5MSI+aGFzPC90ZXh0Pjx0ZXh0IGZpbGw9IiMwMDAwMDAiIGZvbnQtZmFtaWx5PSJzYW5zLXNlcmlmIiBmb250LXNpemU9IjEzIiBsZW5ndGhBZGp1c3Q9InNwYWNpbmciIHRleHRMZW5ndGg9IjciIHg9IjU0Ni44NDU2IiB5PSIxMDAyLjI0ODMiPjE8L3RleHQ+PHRleHQgZmlsbD0iIzAwMDAwMCIgZm9udC1mYW1pbHk9InNhbnMtc2VyaWYiIGZvbnQtc2l6ZT0iMTMiIGxlbmd0aEFkanVzdD0ic3BhY2luZyIgdGV4dExlbmd0aD0iNiIgeD0iNTk1LjcyMTgiIHk9IjEwNjIuMjE2Ij4qPC90ZXh0PjwvZz48IS0tbGluayBUZWFtIHRvIENvbnRlbnQtLT48ZyBpZD0ibGlua19UZWFtX0NvbnRlbnQiPjxwYXRoIGNvZGVMaW5lPSIxMzIiIGQ9Ik01MjMuNTQsNTMyLjcxIEM1MTcuNjUsNTM1LjYgNTExLjc0LDUzOC40IDUwNiw1NDEgQzQyMS44LDU3OS4xNSAzOTAuNzgsNTY3LjY0IDMxMiw2MTYgQzMwNS45OCw2MTkuNjkgMzAwLDYyMy44NCAyOTQuMTUsNjI4LjI0ICIgZmlsbD0ibm9uZSIgaWQ9IlRlYW0tQ29udGVudCIgc3R5bGU9InN0cm9rZTojMDAwMDAwO3N0cm9rZS13aWR0aDoxLjA7Ii8+PHRleHQgZmlsbD0iIzAwMDAwMCIgZm9udC1mYW1pbHk9InNhbnMtc2VyaWYiIGZvbnQtc2l6ZT0iMTMiIGxlbmd0aEFkanVzdD0ic3BhY2luZyIgdGV4dExlbmd0aD0iNDAiIHg9IjQxOSIgeT0iNTg0LjI4OTEiPm9mZmVyczwvdGV4dD48dGV4dCBmaWxsPSIjMDAwMDAwIiBmb250LWZhbWlseT0ic2Fucy1zZXJpZiIgZm9udC1zaXplPSIxMyIgbGVuZ3RoQWRqdXN0PSJzcGFjaW5nIiB0ZXh0TGVuZ3RoPSI3IiB4PSI1MDkuMDE2IiB5PSI1MzUuMzE4NyI+MTwvdGV4dD48dGV4dCBmaWxsPSIjMDAwMDAwIiBmb250LWZhbWlseT0ic2Fucy1zZXJpZiIgZm9udC1zaXplPSIxMyIgbGVuZ3RoQWRqdXN0PSJzcGFjaW5nIiB0ZXh0TGVuZ3RoPSI2IiB4PSIzMDIuMTQ1NSIgeT0iNjE5LjQwNTciPio8L3RleHQ+PC9nPjwhLS1saW5rIFRlYW0gdG8gUHJvZHVjdC0tPjxnIGlkPSJsaW5rX1RlYW1fUHJvZHVjdCI+PHBhdGggY29kZUxpbmU9IjEzMyIgZD0iTTU0OS44Niw1NDEuNDUgQzUyOS4wNCw1NjMuNjMgNTAzLjUyLDU5MC44MiA0NzkuOTUsNjE1LjkzICIgZmlsbD0ibm9uZSIgaWQ9IlRlYW0tUHJvZHVjdCIgc3R5bGU9InN0cm9rZTojMDAwMDAwO3N0cm9rZS13aWR0aDoxLjA7Ii8+PHRleHQgZmlsbD0iIzAwMDAwMCIgZm9udC1mYW1pbHk9InNhbnMtc2VyaWYiIGZvbnQtc2l6ZT0iMTMiIGxlbmd0aEFkanVzdD0ic3BhY2luZyIgdGV4dExlbmd0aD0iNDAiIHg9IjUxOSIgeT0iNTg0LjI4OTEiPm9mZmVyczwvdGV4dD48dGV4dCBmaWxsPSIjMDAwMDAwIiBmb250LWZhbWlseT0ic2Fucy1zZXJpZiIgZm9udC1zaXplPSIxMyIgbGVuZ3RoQWRqdXN0PSJzcGFjaW5nIiB0ZXh0TGVuZ3RoPSI3IiB4PSI1MzYuMzAxMyIgeT0iNTYxLjMyMyI+MTwvdGV4dD48dGV4dCBmaWxsPSIjMDAwMDAwIiBmb250LWZhbWlseT0ic2Fucy1zZXJpZiIgZm9udC1zaXplPSIxMyIgbGVuZ3RoQWRqdXN0PSJzcGFjaW5nIiB0ZXh0TGVuZ3RoPSI2IiB4PSI0ODEuMzgyIiB5PSI2MDYuMTg5MyI+KjwvdGV4dD48L2c+PCEtLWxpbmsgVGVhbSB0byBQb3N0LS0+PGcgaWQ9ImxpbmtfVGVhbV9Qb3N0Ij48cGF0aCBjb2RlTGluZT0iMTM0IiBkPSJNNTkzLDU0MS40NSBDNTkzLDU2NS43OCA1OTMsNTk2LjEzIDU5Myw2MjMuMTYgIiBmaWxsPSJub25lIiBpZD0iVGVhbS1Qb3N0IiBzdHlsZT0ic3Ryb2tlOiMwMDAwMDA7c3Ryb2tlLXdpZHRoOjEuMDsiLz48dGV4dCBmaWxsPSIjMDAwMDAwIiBmb250LWZhbWlseT0ic2Fucy1zZXJpZiIgZm9udC1zaXplPSIxMyIgbGVuZ3RoQWRqdXN0PSJzcGFjaW5nIiB0ZXh0TGVuZ3RoPSI1NSIgeD0iNTk0IiB5PSI1ODQuMjg5MSI+cmVjZWl2ZXM8L3RleHQ+PHRleHQgZmlsbD0iIzAwMDAwMCIgZm9udC1mYW1pbHk9InNhbnMtc2VyaWYiIGZvbnQtc2l6ZT0iMTMiIGxlbmd0aEFkanVzdD0ic3BhY2luZyIgdGV4dExlbmd0aD0iNyIgeD0iNTg1LjUwNzgiIHk9IjU2MS4zMjMiPjE8L3RleHQ+PHRleHQgZmlsbD0iIzAwMDAwMCIgZm9udC1mYW1pbHk9InNhbnMtc2VyaWYiIGZvbnQtc2l6ZT0iMTMiIGxlbmd0aEFkanVzdD0ic3BhY2luZyIgdGV4dExlbmd0aD0iNiIgeD0iNTg2LjY1MzEiIHk9IjYxMy43MzgzIj4qPC90ZXh0PjwvZz48IS0tbGluayBUZWFtIHRvIEV2ZW50VGVhbS0tPjxnIGlkPSJsaW5rX1RlYW1fRXZlbnRUZWFtIj48cGF0aCBjb2RlTGluZT0iMTM1IiBkPSJNNjM4LjgsNTQxLjE2IEM2NTUuOTksNTYyLjAzIDY3Mi44NSw1ODguMjcgNjc5LDYxNiBDNzE0LjU3LDc3Ni4zMSA2ODYuMTcsOTcwLjY1IDY2Ni4yNSwxMDcxLjYyICIgZmlsbD0ibm9uZSIgaWQ9IlRlYW0tRXZlbnRUZWFtIiBzdHlsZT0ic3Ryb2tlOiMwMDAwMDA7c3Ryb2tlLXdpZHRoOjEuMDsiLz48dGV4dCBmaWxsPSIjMDAwMDAwIiBmb250LWZhbWlseT0ic2Fucy1zZXJpZiIgZm9udC1zaXplPSIxMyIgbGVuZ3RoQWRqdXN0PSJzcGFjaW5nIiB0ZXh0TGVuZ3RoPSI5MyIgeD0iNjk3IiB5PSI4MTIuMjg5MSI+cGFydGljaXBhdGVzSW48L3RleHQ+PHRleHQgZmlsbD0iIzAwMDAwMCIgZm9udC1mYW1pbHk9InNhbnMtc2VyaWYiIGZvbnQtc2l6ZT0iMTMiIGxlbmd0aEFkanVzdD0ic3BhY2luZyIgdGV4dExlbmd0aD0iNyIgeD0iNjM4LjAxMjgiIHk9IjU2MS4zMjc1Ij4xPC90ZXh0Pjx0ZXh0IGZpbGw9IiMwMDAwMDAiIGZvbnQtZmFtaWx5PSJzYW5zLXNlcmlmIiBmb250LXNpemU9IjEzIiBsZW5ndGhBZGp1c3Q9InNwYWNpbmciIHRleHRMZW5ndGg9IjYiIHg9IjY2MS42NjY0IiB5PSIxMDYyLjE5MzciPio8L3RleHQ+PC9nPjwhLS1saW5rIFBvbGwgdG8gUG9sbFZvdGUtLT48ZyBpZD0ibGlua19Qb2xsX1BvbGxWb3RlIj48cGF0aCBjb2RlTGluZT0iMTM3IiBkPSJNMTIzNy4xOCwxMzcuNjcgQzEyMjcuMDQsMTcxLjc4IDEyMTMuOTEsMjE1Ljg5IDEyMDMuNzgsMjQ5Ljk3ICIgZmlsbD0ibm9uZSIgaWQ9IlBvbGwtUG9sbFZvdGUiIHN0eWxlPSJzdHJva2U6IzAwMDAwMDtzdHJva2Utd2lkdGg6MS4wOyIvPjx0ZXh0IGZpbGw9IiMwMDAwMDAiIGZvbnQtZmFtaWx5PSJzYW5zLXNlcmlmIiBmb250LXNpemU9IjEzIiBsZW5ndGhBZGp1c3Q9InNwYWNpbmciIHRleHRMZW5ndGg9IjQ5IiB4PSIxMjIyIiB5PSIyMDMuMjg5MSI+cmVjb3JkczwvdGV4dD48dGV4dCBmaWxsPSIjMDAwMDAwIiBmb250LWZhbWlseT0ic2Fucy1zZXJpZiIgZm9udC1zaXplPSIxMyIgbGVuZ3RoQWRqdXN0PSJzcGFjaW5nIiB0ZXh0TGVuZ3RoPSI3IiB4PSIxMjI3LjcwNDYiIHk9IjE1Ny43OTUiPjE8L3RleHQ+PHRleHQgZmlsbD0iIzAwMDAwMCIgZm9udC1mYW1pbHk9InNhbnMtc2VyaWYiIGZvbnQtc2l6ZT0iMTMiIGxlbmd0aEFkanVzdD0ic3BhY2luZyIgdGV4dExlbmd0aD0iNiIgeD0iMTE5OS42NTcxIiB5PSIyNDAuNDQwNCI+KjwvdGV4dD48L2c+PCEtLWxpbmsgUG9zdCB0byBFdmVudC0tPjxnIGlkPSJsaW5rX1Bvc3RfRXZlbnQiPjxwYXRoIGNvZGVMaW5lPSIxMzkiIGQ9Ik01NjUuODMsNzYxLjc0IEM1NTUuNDEsNzg3LjkxIDU0My41Myw4MTcuNzUgNTMzLjExLDg0My45MSAiIGZpbGw9Im5vbmUiIGlkPSJQb3N0LUV2ZW50IiBzdHlsZT0ic3Ryb2tlOiMwMDAwMDA7c3Ryb2tlLXdpZHRoOjEuMDsiLz48dGV4dCBmaWxsPSIjMDAwMDAwIiBmb250LWZhbWlseT0ic2Fucy1zZXJpZiIgZm9udC1zaXplPSIxMyIgbGVuZ3RoQWRqdXN0PSJzcGFjaW5nIiB0ZXh0TGVuZ3RoPSI2OSIgeD0iNTUxIiB5PSI4MTIuMjg5MSI+cmVmZXJlbmNlczwvdGV4dD48dGV4dCBmaWxsPSIjMDAwMDAwIiBmb250LWZhbWlseT0ic2Fucy1zZXJpZiIgZm9udC1zaXplPSIxMyIgbGVuZ3RoQWRqdXN0PSJzcGFjaW5nIiB0ZXh0TGVuZ3RoPSIyNiIgeD0iNTM1LjY4NzUiIHk9Ijc4MS44OTE3Ij4wLi4xPC90ZXh0Pjx0ZXh0IGZpbGw9IiMwMDAwMDAiIGZvbnQtZmFtaWx5PSJzYW5zLXNlcmlmIiBmb250LXNpemU9IjEzIiBsZW5ndGhBZGp1c3Q9InNwYWNpbmciIHRleHRMZW5ndGg9IjciIHg9IjUyOC44Mzk5IiB5PSI4MzQuNTE3MiI+MTwvdGV4dD48L2c+PCEtLVNSQz1bZExSVkp6aW00N3hGTnQ3ZzJuOGdyTllEOWdHTHE1Rzk2NWhCTllTdEVMZUZueXZpWHI4WF9sVVR4VEhuc3hKME5qaGF4ZHB0dE5TXzdGRjRQU3FxZ3MzRVlnVTVMZXFpQnZMRzZiUEJSWjRwS0x5OFBXb3lQVzNaN1NpUmxiWlF4dmdqZEt4ZjRkTUdabUtQYWtvUnJjZ0xZandvQjdYeENBWXpveENWeXB6T3M0YTlsN0lsS3drdk40MTNVaWFnSjRIT0NJd0l6dmh5aDJYZThqOUEtMUN0dERZbDZ5U05PNTNHNHZSSk1jYUljMXVKWXdub2NXWm01Z2l2UWhGYVRJX0MtRWcwSmI4Q0xKbXVNelNVcEhNcDI0c3pxQW40enhvTG14ZjJRUVVNc1NSM0NpdFM1OWhOYllqdkJ2WkN1SExncEdsQ3VRdm5aZVRHRGZldlRHeDFvSDJDUFRld3BwY3V0bzZXQkJqTlVFa295V21TdXpycDdpcmRuQ2d4cmdkTTE4T3gzelZGYkR2X2tKWFNlbXNidkpRTkdYTVVibUctQnZ4R1ZoSC1LT0dFU3YwNXBhQzVhYjBjcmlpM0FKSklOX2REZllPYTJnU0plVk0wVjV6NGE5VEFzZFN1aWpvQURCbmo2b2pRMXNPSVlzVFVlZGhHZVdUWTM3b2xMVGFLN29oRUJXczcwX0VBQlIwREY1T3FaYW0yRHpTbFhNV0NWeVFaVTlKdlZBdHMwNVh5aVZzNXNRamw0YmM4T3BKeVJUM3VwamhxUDkxVldGOXBRZXZkOVNHbEhSZ1pjVExhREpjS1JDai0yM1FIOVJ4aXBEVjFDVXJod1NGS1JSUGR0NHNRLWZOTlZnWWNzbnRsRHl3Q2Z4bFlha0dCZlRVVjZkUUFHUzBzSHFEREprMGQyWF9LQkw2Si1RallTM3cwaXBDT1YxY0R3MmJQcFphaXNPeER3UTNUU3J4dFVzbHh4dmp3eWQ5dWYwZ2VMT3l3eDkwU3I0aGtRc0RyU29ZT2lOcTZuWHJVUVJmSUpQTzVORmxIa1FHMUFTY1lESllEMWY3TTdFT2ViNW9PY1Nnb0E0clM5UFFLemhJUDVxNzBOVTJtWF9sb1NsSGpReXl4X2hnR1Vtd3dwV2ktQ2wtU3VjYU42cjd0LTRaTHNaRk9CQTMzMWU0eVpHTkl4alpOZm4yd1JhS3BhTGRjUHhnX0trSUZGWGtDaW83X1JLa3JZT1NxZEdxWEdiYXV4YXhXWld1UVFYNERqcUk3a1hmZHFoZEl4bEU3bUZrbDZVZmh6c1U2QlJOcXU5dEhGemZZRDBIZ1RQZVJmUDY2R2pCenUzd2t0Q3VXT0RJVmhqcjd2NkVoenpxSVczV2k3SU9XOTZ1NG9qOURiU0RiQWFSdnFldDhIWGRUX2szbV9HQzBdLS0+PC9nPjwvc3ZnPg==;" parent="1" vertex="1">
            <mxGeometry x="-500" y="20" width="1403" height="1286" as="geometry" />
          </mxCell>
        </UserObject>
      </root>
    </mxGraphModel>
  </diagram>
</mxfile>
